<svg xmlns="http://www.w3.org/2000/svg" width="50" zoomAndPan="magnify" viewBox="0 0 37.5 37.499999" height="50"
     preserveAspectRatio="xMidYMid meet" version="1.0"><defs><clipPath id="8eeef48d31"><path d="M 24 0 L 37.007812 0 L 37.007812 13 L 24 13 Z M 24 0 " clip-rule="nonzero"/></clipPath><clipPath id="8d6c576f4f"><path d="M 24 24 L 37.007812 24 L 37.007812 37.007812 L 24 37.007812 Z M 24 24 " clip-rule="nonzero"/></clipPath><clipPath id="f2d0a66227"><path d="M 0 0 L 37.007812 0 L 37.007812 37.007812 L 0 37.007812 Z M 0 0 " clip-rule="nonzero"/></clipPath></defs><path fill="#5ce1e6" d="M 0 12.335938 L 12.335938 12.335938 L 12.335938 0 L 0 0 Z M 3.144531 9.191406 L 9.191406 9.191406 L 9.191406 3.144531 L 3.144531 3.144531 Z M 3.144531 9.191406 " fill-opacity="1" fill-rule="evenodd"/><path fill="#00bf63" d="M 4.046875 4.046875 L 8.289062 4.046875 L 8.289062 8.289062 L 4.046875 8.289062 Z M 4.046875 4.046875 " fill-opacity="1" fill-rule="nonzero"/><g clip-path="url(#8eeef48d31)"><path fill="#5ce1e6" d="M 24.671875 12.335938 L 37.007812 12.335938 L 37.007812 0 L 24.671875 0 Z M 27.816406 9.191406 L 33.863281 9.191406 L 33.863281 3.144531 L 27.816406 3.144531 Z M 27.816406 9.191406 " fill-opacity="1" fill-rule="evenodd"/></g><path fill="#00bf63" d="M 28.71875 4.046875 L 32.960938 4.046875 L 32.960938 8.289062 L 28.71875 8.289062 Z M 28.71875 4.046875 " fill-opacity="1" fill-rule="nonzero"/><g clip-path="url(#8d6c576f4f)"><path fill="#5ce1e6" d="M 24.671875 37.007812 L 37.007812 37.007812 L 37.007812 24.671875 L 24.671875 24.671875 Z M 27.816406 33.863281 L 33.863281 33.863281 L 33.863281 27.816406 L 27.816406 27.816406 Z M 27.816406 33.863281 " fill-opacity="1" fill-rule="evenodd"/></g><path fill="#00bf63" d="M 28.71875 28.71875 L 32.960938 28.71875 L 32.960938 32.960938 L 28.71875 32.960938 Z M 28.71875 28.71875 " fill-opacity="1" fill-rule="nonzero"/><path fill="#5ce1e6" d="M 8.226562 16.445312 L 12.335938 16.445312 L 12.335938 20.558594 L 8.226562 20.558594 Z M 8.226562 16.445312 " fill-opacity="1" fill-rule="nonzero"/><g clip-path="url(#f2d0a66227)"><path fill="#5ce1e6" d="M 4.113281 16.445312 L 4.113281 20.558594 L 0 20.558594 L 0 16.445312 Z M 20.558594 16.445312 L 20.558594 12.335938 L 16.449219 12.335938 L 16.449219 24.671875 L 20.558594 24.671875 L 20.558594 20.558594 L 28.785156 20.558594 L 28.785156 16.445312 Z M 32.894531 16.445312 L 32.894531 20.558594 L 37.007812 20.558594 L 37.007812 16.445312 Z M 8.222656 20.558594 L 4.113281 20.558594 L 4.113281 24.671875 L 8.222656 24.671875 Z M 0 28.785156 L 4.113281 28.785156 L 4.113281 24.671875 L 0 24.671875 Z M 16.449219 28.785156 L 8.222656 28.785156 L 8.222656 32.894531 L 12.335938 32.894531 L 12.335938 37.007812 L 20.558594 37.007812 L 20.558594 32.894531 L 16.449219 32.894531 Z M 0 37.007812 L 4.113281 37.007812 L 4.113281 32.894531 L 0 32.894531 Z M 20.558594 4.113281 L 20.558594 0 L 16.449219 0 L 16.449219 8.222656 L 20.558594 8.222656 Z M 20.558594 4.113281 " fill-opacity="1" fill-rule="evenodd"/></g></svg>