<svg xmlns="http://www.w3.org/2000/svg" xmlns:xlink="http://www.w3.org/1999/xlink" width="50" zoomAndPan="magnify" viewBox="0 0 37.5 37.499999" height="50" preserveAspectRatio="xMidYMid meet" version="1.0"><defs><clipPath id="2d7c5806ca"><path d="M 0.167969 8 L 26 8 L 26 35.527344 L 0.167969 35.527344 Z M 0.167969 8 " clip-rule="nonzero"/></clipPath><clipPath id="a16b34639a"><path d="M 9 30 L 29 30 L 29 35.527344 L 9 35.527344 Z M 9 30 " clip-rule="nonzero"/></clipPath><clipPath id="637ea15f6b"><path d="M 25 17 L 37.007812 17 L 37.007812 30 L 25 30 Z M 25 17 " clip-rule="nonzero"/></clipPath></defs><g clip-path="url(#2d7c5806ca)"><path fill="#f4ca94" d="M 2.171875 9.234375 C 1.867188 9.246094 1.582031 9.324219 1.3125 9.464844 C 1.042969 9.609375 0.820312 9.800781 0.640625 10.046875 C 0.460938 10.289062 0.34375 10.5625 0.289062 10.859375 C 0.234375 11.15625 0.246094 11.449219 0.328125 11.738281 L 6.089844 32.535156 C 6.554688 34.207031 8.261719 35.503906 9.90625 35.433594 C 11.550781 35.363281 12.507812 33.953125 12.042969 32.28125 L 25.800781 31.691406 L 19.796875 10.023438 C 19.738281 9.804688 19.640625 9.605469 19.511719 9.421875 C 19.382812 9.234375 19.226562 9.078125 19.046875 8.945312 C 18.863281 8.8125 18.660156 8.714844 18.445312 8.648438 C 18.226562 8.585938 18.007812 8.554688 17.78125 8.566406 Z M 2.171875 9.234375 " fill-opacity="1" fill-rule="nonzero"/></g><g clip-path="url(#a16b34639a)"><path fill="#da7155" d="M 12.328125 31.628906 C 12.25 31.632812 12.175781 31.65625 12.105469 31.691406 C 12.039062 31.730469 11.980469 31.78125 11.933594 31.84375 C 11.886719 31.90625 11.859375 31.976562 11.84375 32.054688 C 11.832031 32.132812 11.835938 32.207031 11.859375 32.28125 L 11.859375 32.289062 C 12.324219 33.960938 11.367188 35.371094 9.722656 35.441406 L 26.457031 34.726562 L 26.453125 34.71875 C 27.96875 34.542969 28.824219 33.179688 28.378906 31.582031 C 28.355469 31.488281 28.324219 31.394531 28.292969 31.304688 C 28.207031 31.070312 28.035156 30.960938 27.785156 30.96875 Z M 12.328125 31.628906 " fill-opacity="1" fill-rule="nonzero"/></g><path fill="#da7155" d="M 4.730469 17.542969 L 3.417969 12.8125 L 8.113281 12.609375 L 9.425781 17.34375 Z M 4.289062 13.441406 L 5.238281 16.855469 L 8.554688 16.710938 L 7.605469 13.300781 Z M 4.289062 13.441406 " fill-opacity="1" fill-rule="nonzero"/><path fill="#da7155" d="M 10.242188 13.75 L 17.949219 13.421875 L 17.980469 14.085938 L 10.269531 14.417969 Z M 10.242188 13.75 " fill-opacity="1" fill-rule="nonzero"/><path fill="#da7155" d="M 10.75 15.589844 L 18.460938 15.261719 L 18.488281 15.929688 L 10.78125 16.257812 Z M 10.75 15.589844 " fill-opacity="1" fill-rule="nonzero"/><path fill="#da7155" d="M 6.296875 23.195312 L 4.984375 18.464844 L 9.679688 18.265625 L 10.992188 22.996094 Z M 5.859375 19.09375 L 6.804688 22.507812 L 10.121094 22.367188 L 9.171875 18.953125 Z M 5.859375 19.09375 " fill-opacity="1" fill-rule="nonzero"/><path fill="#da7155" d="M 11.808594 19.402344 L 19.515625 19.074219 L 19.546875 19.738281 L 11.835938 20.070312 Z M 11.808594 19.402344 " fill-opacity="1" fill-rule="nonzero"/><path fill="#da7155" d="M 12.320312 21.246094 L 20.027344 20.914062 L 20.058594 21.582031 L 12.347656 21.910156 Z M 12.320312 21.246094 " fill-opacity="1" fill-rule="nonzero"/><path fill="#da7155" d="M 7.863281 28.851562 L 6.550781 24.117188 L 11.246094 23.917969 L 12.558594 28.648438 Z M 7.425781 24.75 L 8.371094 28.160156 L 11.6875 28.019531 L 10.742188 24.605469 Z M 7.425781 24.75 " fill-opacity="1" fill-rule="nonzero"/><path fill="#da7155" d="M 13.375 25.058594 L 21.085938 24.726562 L 21.113281 25.394531 L 13.402344 25.722656 Z M 13.375 25.058594 " fill-opacity="1" fill-rule="nonzero"/><path fill="#da7155" d="M 13.886719 26.898438 L 21.59375 26.570312 L 21.625 27.234375 L 13.914062 27.566406 Z M 13.886719 26.898438 " fill-opacity="1" fill-rule="nonzero"/><path fill="#f4ca94" d="M 25.433594 11.144531 C 25.433594 11.652344 25.382812 12.15625 25.28125 12.65625 C 25.183594 13.152344 25.035156 13.636719 24.835938 14.109375 C 24.640625 14.578125 24.398438 15.023438 24.113281 15.445312 C 23.828125 15.867188 23.507812 16.261719 23.144531 16.621094 C 22.78125 16.980469 22.386719 17.300781 21.957031 17.582031 C 21.53125 17.863281 21.082031 18.101562 20.609375 18.296875 C 20.132812 18.492188 19.644531 18.640625 19.140625 18.738281 C 18.636719 18.835938 18.128906 18.886719 17.617188 18.886719 C 17.105469 18.886719 16.59375 18.835938 16.09375 18.738281 C 15.589844 18.640625 15.101562 18.492188 14.625 18.296875 C 14.152344 18.101562 13.703125 17.863281 13.273438 17.582031 C 12.847656 17.300781 12.453125 16.980469 12.089844 16.621094 C 11.726562 16.261719 11.402344 15.867188 11.117188 15.445312 C 10.832031 15.023438 10.59375 14.578125 10.394531 14.109375 C 10.199219 13.636719 10.050781 13.152344 9.953125 12.65625 C 9.851562 12.15625 9.800781 11.652344 9.800781 11.144531 C 9.800781 10.636719 9.851562 10.132812 9.953125 9.632812 C 10.050781 9.136719 10.199219 8.652344 10.394531 8.183594 C 10.59375 7.710938 10.832031 7.265625 11.117188 6.84375 C 11.402344 6.421875 11.726562 6.03125 12.089844 5.671875 C 12.453125 5.3125 12.847656 4.988281 13.273438 4.707031 C 13.703125 4.425781 14.152344 4.1875 14.625 3.992188 C 15.101562 3.796875 15.589844 3.652344 16.09375 3.550781 C 16.59375 3.453125 17.105469 3.402344 17.617188 3.402344 C 18.128906 3.402344 18.636719 3.453125 19.140625 3.550781 C 19.644531 3.652344 20.132812 3.796875 20.609375 3.992188 C 21.082031 4.1875 21.53125 4.425781 21.957031 4.707031 C 22.386719 4.988281 22.78125 5.3125 23.144531 5.671875 C 23.507812 6.03125 23.828125 6.421875 24.113281 6.84375 C 24.398438 7.265625 24.640625 7.710938 24.835938 8.183594 C 25.035156 8.652344 25.183594 9.136719 25.28125 9.632812 C 25.382812 10.132812 25.433594 10.636719 25.433594 11.144531 Z M 25.433594 11.144531 " fill-opacity="1" fill-rule="nonzero"/><path fill="#da7155" d="M 10.234375 9.707031 L 22.21875 9.195312 L 22.273438 10.511719 L 10.289062 11.023438 Z M 10.234375 9.707031 " fill-opacity="1" fill-rule="nonzero"/><path fill="#da7155" d="M 7.984375 13.488281 L 23.226562 12.835938 L 23.285156 14.152344 L 8.042969 14.804688 Z M 7.984375 13.488281 " fill-opacity="1" fill-rule="nonzero"/><path fill="#2b6bb5" d="M 33.347656 22.648438 L 30.570312 25.59375 L 22.238281 17.195312 L 24.3125 14.992188 Z M 33.347656 22.648438 " fill-opacity="1" fill-rule="nonzero"/><g clip-path="url(#637ea15f6b)"><path fill="#a87ab6" d="M 36.875 25.554688 L 33.742188 28.882812 C 33.644531 28.988281 33.527344 29.066406 33.394531 29.125 C 33.261719 29.179688 33.125 29.210938 32.980469 29.210938 C 32.835938 29.210938 32.699219 29.179688 32.566406 29.125 C 32.433594 29.066406 32.320312 28.984375 32.222656 28.878906 L 25.5625 21.761719 C 25.378906 21.5625 25.285156 21.328125 25.285156 21.058594 C 25.289062 20.789062 25.378906 20.558594 25.566406 20.359375 L 27.730469 18.0625 C 27.914062 17.867188 28.144531 17.757812 28.414062 17.738281 C 28.683594 17.722656 28.925781 17.796875 29.136719 17.964844 L 36.769531 24.054688 C 36.882812 24.144531 36.96875 24.25 37.039062 24.378906 C 37.105469 24.503906 37.140625 24.636719 37.152344 24.78125 C 37.164062 24.921875 37.144531 25.0625 37.097656 25.195312 C 37.046875 25.332031 36.976562 25.449219 36.875 25.554688 Z M 36.875 25.554688 " fill-opacity="1" fill-rule="nonzero"/></g><path fill="#2b6bb5" d="M 10.195312 16.382812 C 10.5 16.929688 10.855469 17.441406 11.261719 17.921875 C 11.667969 18.402344 12.117188 18.835938 12.609375 19.226562 C 13.101562 19.621094 13.628906 19.960938 14.1875 20.25 C 14.746094 20.535156 15.332031 20.769531 15.9375 20.945312 C 16.542969 21.117188 17.160156 21.234375 17.789062 21.289062 C 18.417969 21.339844 19.046875 21.335938 19.675781 21.265625 C 20.304688 21.199219 20.917969 21.070312 21.519531 20.882812 C 22.121094 20.695312 22.699219 20.449219 23.253906 20.148438 C 23.808594 19.847656 24.328125 19.496094 24.808594 19.09375 C 25.292969 18.691406 25.734375 18.246094 26.128906 17.757812 C 26.523438 17.269531 26.867188 16.746094 27.15625 16.191406 C 27.449219 15.636719 27.683594 15.058594 27.859375 14.460938 C 28.035156 13.859375 28.152344 13.246094 28.207031 12.625 C 28.261719 12 28.253906 11.378906 28.1875 10.757812 C 28.117188 10.132812 27.988281 9.527344 27.796875 8.929688 C 27.605469 8.332031 27.359375 7.761719 27.054688 7.210938 C 26.753906 6.664062 26.398438 6.148438 25.992188 5.671875 C 25.585938 5.191406 25.136719 4.757812 24.644531 4.363281 C 24.152344 3.972656 23.625 3.632812 23.0625 3.34375 C 22.503906 3.054688 21.921875 2.824219 21.316406 2.648438 C 20.707031 2.472656 20.089844 2.359375 19.460938 2.304688 C 18.832031 2.25 18.203125 2.257812 17.578125 2.328125 C 16.949219 2.394531 16.332031 2.523438 15.730469 2.710938 C 15.128906 2.898438 14.550781 3.144531 13.996094 3.445312 C 13.445312 3.746094 12.925781 4.097656 12.441406 4.5 C 11.957031 4.902344 11.519531 5.347656 11.125 5.835938 C 10.730469 6.324219 10.386719 6.84375 10.09375 7.398438 C 9.800781 7.953125 9.570312 8.53125 9.390625 9.132812 C 9.214844 9.734375 9.101562 10.34375 9.046875 10.96875 C 8.992188 11.59375 8.996094 12.214844 9.066406 12.835938 C 9.136719 13.457031 9.265625 14.066406 9.453125 14.664062 C 9.644531 15.261719 9.890625 15.832031 10.195312 16.382812 Z M 25.277344 8.179688 C 25.515625 8.613281 25.710938 9.0625 25.859375 9.535156 C 26.011719 10.003906 26.113281 10.484375 26.167969 10.976562 C 26.222656 11.464844 26.226562 11.957031 26.183594 12.449219 C 26.140625 12.941406 26.050781 13.421875 25.910156 13.898438 C 25.769531 14.371094 25.585938 14.828125 25.355469 15.265625 C 25.125 15.703125 24.855469 16.113281 24.542969 16.5 C 24.230469 16.882812 23.886719 17.234375 23.503906 17.550781 C 23.121094 17.871094 22.714844 18.148438 22.277344 18.382812 C 21.839844 18.621094 21.382812 18.816406 20.910156 18.964844 C 20.433594 19.113281 19.949219 19.210938 19.453125 19.265625 C 18.960938 19.320312 18.464844 19.324219 17.96875 19.28125 C 17.472656 19.238281 16.984375 19.148438 16.503906 19.011719 C 16.027344 18.875 15.566406 18.691406 15.125 18.464844 C 14.683594 18.234375 14.269531 17.96875 13.878906 17.660156 C 13.492188 17.351562 13.136719 17.007812 12.816406 16.628906 C 12.496094 16.25 12.214844 15.84375 11.976562 15.414062 C 11.738281 14.980469 11.542969 14.527344 11.390625 14.058594 C 11.242188 13.585938 11.140625 13.105469 11.085938 12.617188 C 11.03125 12.125 11.023438 11.636719 11.070312 11.144531 C 11.113281 10.652344 11.203125 10.167969 11.34375 9.695312 C 11.480469 9.222656 11.667969 8.765625 11.894531 8.328125 C 12.125 7.890625 12.398438 7.480469 12.707031 7.09375 C 13.019531 6.710938 13.367188 6.359375 13.746094 6.039062 C 14.128906 5.722656 14.539062 5.445312 14.976562 5.207031 C 15.410156 4.972656 15.867188 4.777344 16.34375 4.628906 C 16.816406 4.480469 17.304688 4.378906 17.796875 4.328125 C 18.292969 4.273438 18.789062 4.265625 19.285156 4.308594 C 19.78125 4.351562 20.269531 4.441406 20.746094 4.582031 C 21.226562 4.71875 21.683594 4.902344 22.128906 5.128906 C 22.570312 5.355469 22.984375 5.625 23.371094 5.933594 C 23.761719 6.242188 24.117188 6.585938 24.4375 6.964844 C 24.757812 7.34375 25.035156 7.746094 25.277344 8.179688 Z M 25.277344 8.179688 " fill-opacity="1" fill-rule="nonzero"/><path fill="#d4edef" d="M 23.511719 4.3125 C 23.894531 4.6875 24.234375 5.101562 24.535156 5.546875 C 24.835938 5.992188 25.089844 6.460938 25.296875 6.953125 C 25.5 7.449219 25.65625 7.957031 25.761719 8.484375 C 25.867188 9.007812 25.921875 9.539062 25.921875 10.074219 C 25.921875 10.609375 25.867188 11.136719 25.761719 11.664062 C 25.65625 12.1875 25.5 12.695312 25.296875 13.191406 C 25.089844 13.683594 24.835938 14.15625 24.535156 14.601562 C 24.234375 15.042969 23.894531 15.457031 23.511719 15.835938 C 23.128906 16.214844 22.714844 16.550781 22.265625 16.847656 C 21.816406 17.144531 21.34375 17.394531 20.84375 17.601562 C 20.34375 17.804688 19.832031 17.960938 19.300781 18.066406 C 18.769531 18.167969 18.234375 18.222656 17.695312 18.222656 C 17.15625 18.222656 16.621094 18.167969 16.089844 18.066406 C 15.5625 17.960938 15.046875 17.804688 14.546875 17.601562 C 14.050781 17.394531 13.574219 17.144531 13.125 16.847656 C 12.675781 16.550781 12.261719 16.214844 11.878906 15.835938 C 11.496094 15.457031 11.15625 15.042969 10.855469 14.601562 C 10.554688 14.15625 10.304688 13.683594 10.097656 13.191406 C 9.890625 12.695312 9.734375 12.1875 9.628906 11.664062 C 9.523438 11.136719 9.46875 10.609375 9.46875 10.074219 C 9.46875 9.539062 9.523438 9.007812 9.628906 8.484375 C 9.734375 7.957031 9.890625 7.449219 10.097656 6.953125 C 10.304688 6.460938 10.554688 5.992188 10.855469 5.546875 C 11.15625 5.101562 11.496094 4.6875 11.878906 4.3125 C 12.261719 3.933594 12.675781 3.59375 13.125 3.296875 C 13.574219 3 14.050781 2.75 14.546875 2.542969 C 15.046875 2.339844 15.5625 2.183594 16.089844 2.082031 C 16.621094 1.976562 17.15625 1.925781 17.695312 1.925781 C 18.234375 1.925781 18.769531 1.976562 19.300781 2.082031 C 19.832031 2.183594 20.34375 2.339844 20.84375 2.542969 C 21.34375 2.75 21.816406 3 22.265625 3.296875 C 22.714844 3.59375 23.128906 3.933594 23.511719 4.3125 Z M 23.511719 4.3125 " fill-opacity="0.51" fill-rule="nonzero"/><path fill="#2b6bb5" d="M 31.214844 27.804688 L 35.617188 23.132812 L 33.304688 21.289062 L 29.199219 25.644531 Z M 31.214844 27.804688 " fill-opacity="1" fill-rule="nonzero"/><path fill="#a87ab6" d="M 8.84375 15.132812 C 9.148438 15.679688 9.503906 16.195312 9.910156 16.675781 C 10.316406 17.152344 10.765625 17.589844 11.257812 17.980469 C 11.75 18.371094 12.277344 18.710938 12.835938 19 C 13.398438 19.289062 13.980469 19.519531 14.585938 19.695312 C 15.195312 19.871094 15.8125 19.984375 16.441406 20.039062 C 17.070312 20.09375 17.699219 20.085938 18.324219 20.019531 C 18.953125 19.949219 19.566406 19.820312 20.171875 19.632812 C 20.773438 19.445312 21.351562 19.199219 21.902344 18.898438 C 22.457031 18.597656 22.976562 18.246094 23.460938 17.84375 C 23.945312 17.441406 24.382812 16.996094 24.777344 16.507812 C 25.171875 16.019531 25.515625 15.5 25.808594 14.945312 C 26.097656 14.390625 26.332031 13.8125 26.507812 13.210938 C 26.6875 12.609375 26.800781 12 26.855469 11.375 C 26.910156 10.753906 26.90625 10.128906 26.835938 9.507812 C 26.765625 8.886719 26.636719 8.277344 26.445312 7.679688 C 26.257812 7.085938 26.011719 6.511719 25.707031 5.964844 C 25.402344 5.414062 25.046875 4.902344 24.640625 4.421875 C 24.234375 3.941406 23.785156 3.507812 23.292969 3.117188 C 22.800781 2.726562 22.273438 2.386719 21.714844 2.097656 C 21.152344 1.808594 20.570312 1.574219 19.964844 1.402344 C 19.359375 1.226562 18.742188 1.113281 18.109375 1.058594 C 17.480469 1.003906 16.855469 1.011719 16.226562 1.078125 C 15.597656 1.144531 14.984375 1.273438 14.382812 1.464844 C 13.777344 1.652344 13.199219 1.894531 12.648438 2.195312 C 12.09375 2.496094 11.574219 2.851562 11.09375 3.25 C 10.609375 3.652344 10.167969 4.097656 9.773438 4.585938 C 9.378906 5.074219 9.035156 5.597656 8.742188 6.152344 C 8.453125 6.707031 8.21875 7.285156 8.042969 7.886719 C 7.867188 8.484375 7.75 9.097656 7.695312 9.722656 C 7.640625 10.34375 7.648438 10.964844 7.714844 11.589844 C 7.785156 12.210938 7.914062 12.820312 8.105469 13.414062 C 8.292969 14.011719 8.542969 14.585938 8.84375 15.132812 Z M 23.773438 7.015625 C 24.007812 7.4375 24.199219 7.878906 24.347656 8.335938 C 24.492188 8.796875 24.59375 9.265625 24.644531 9.746094 C 24.699219 10.226562 24.703125 10.707031 24.660156 11.1875 C 24.621094 11.667969 24.53125 12.136719 24.394531 12.601562 C 24.257812 13.0625 24.078125 13.507812 23.851562 13.9375 C 23.628906 14.363281 23.363281 14.765625 23.058594 15.144531 C 22.753906 15.519531 22.417969 15.863281 22.042969 16.171875 C 21.671875 16.484375 21.269531 16.753906 20.84375 16.984375 C 20.417969 17.21875 19.972656 17.40625 19.507812 17.550781 C 19.042969 17.695312 18.570312 17.796875 18.085938 17.847656 C 17.601562 17.902344 17.117188 17.90625 16.632812 17.863281 C 16.148438 17.824219 15.671875 17.734375 15.203125 17.597656 C 14.738281 17.464844 14.289062 17.285156 13.855469 17.0625 C 13.421875 16.839844 13.019531 16.578125 12.636719 16.277344 C 12.257812 15.976562 11.910156 15.640625 11.597656 15.269531 C 11.285156 14.902344 11.011719 14.503906 10.777344 14.082031 C 10.542969 13.660156 10.355469 13.21875 10.207031 12.757812 C 10.0625 12.300781 9.960938 11.828125 9.90625 11.351562 C 9.855469 10.871094 9.847656 10.390625 9.890625 9.910156 C 9.933594 9.429688 10.023438 8.957031 10.160156 8.496094 C 10.296875 8.03125 10.476562 7.585938 10.699219 7.160156 C 10.925781 6.730469 11.1875 6.328125 11.492188 5.953125 C 11.796875 5.578125 12.136719 5.234375 12.511719 4.925781 C 12.882812 4.613281 13.28125 4.34375 13.710938 4.109375 C 14.136719 3.878906 14.582031 3.691406 15.046875 3.546875 C 15.507812 3.398438 15.984375 3.300781 16.46875 3.25 C 16.953125 3.195312 17.4375 3.191406 17.921875 3.234375 C 18.40625 3.273438 18.882812 3.363281 19.347656 3.496094 C 19.816406 3.632812 20.265625 3.8125 20.699219 4.035156 C 21.128906 4.257812 21.535156 4.519531 21.914062 4.820312 C 22.292969 5.121094 22.640625 5.457031 22.953125 5.828125 C 23.265625 6.195312 23.539062 6.589844 23.773438 7.015625 Z M 23.773438 7.015625 " fill-opacity="1" fill-rule="nonzero"/></svg>