<svg xmlns="http://www.w3.org/2000/svg" xmlns:xlink="http://www.w3.org/1999/xlink" width="100" zoomAndPan="magnify" viewBox="0 0 75 74.999997" height="100" preserveAspectRatio="xMidYMid meet" version="1.0"><defs><clipPath id="24eba1944c"><path d="M 0 6.703125 L 75 6.703125 L 75 68.203125 L 0 68.203125 Z M 0 6.703125 " clip-rule="nonzero"/></clipPath></defs><g clip-path="url(#24eba1944c)"><path fill="#ffffff" d="M 74.824219 7.761719 C 74.664062 7.128906 74.066406 6.707031 73.425781 6.753906 C 51.320312 8.46875 32.945312 23.554688 23.796875 47.308594 C 18.707031 39.53125 11.015625 38.292969 6.632812 38.292969 C 3.375 38.292969 1.070312 38.933594 0.972656 38.960938 C 0.457031 39.105469 0.0820312 39.542969 0.0117188 40.074219 C -0.0585938 40.605469 0.195312 41.125 0.65625 41.398438 C 11.253906 47.65625 17.769531 58.167969 21.371094 65.882812 C 22.050781 67.34375 23.421875 68.25 24.945312 68.25 C 26.703125 68.25 28.199219 67.105469 28.757812 65.332031 C 41.816406 24.007812 73.75 9.453125 74.070312 9.3125 C 74.664062 9.046875 74.984375 8.390625 74.824219 7.761719 Z M 74.824219 7.761719 " fill-opacity="1" fill-rule="nonzero"/></g></svg>