<svg xmlns="http://www.w3.org/2000/svg" xmlns:xlink="http://www.w3.org/1999/xlink" width="100" zoomAndPan="magnify" viewBox="0 0 75 74.999997" height="100" preserveAspectRatio="xMidYMid meet" version="1.0"><defs><clipPath id="893b4efc01"><path d="M 3.46875 29 L 50 29 L 50 75 L 3.46875 75 Z M 3.46875 29 " clip-rule="nonzero"/></clipPath><clipPath id="3ba23aa486"><path d="M 48 33 L 71.71875 33 L 71.71875 57 L 48 57 Z M 48 33 " clip-rule="nonzero"/></clipPath></defs><g clip-path="url(#893b4efc01)"><path fill="#5ce1e6" d="M 42.148438 43.03125 L 44.820312 38.589844 L 39.871094 33.636719 L 35.347656 36.261719 C 33.984375 35.484375 32.507812 34.875 30.953125 34.460938 L 29.625 29.441406 L 22.621094 29.441406 L 21.359375 34.507812 C 19.867188 34.917969 18.449219 35.511719 17.136719 36.261719 L 12.613281 33.636719 L 7.660156 38.589844 L 10.332031 43.03125 C 9.53125 44.417969 8.90625 45.917969 8.484375 47.503906 L 3.46875 48.835938 L 3.46875 55.835938 L 8.53125 57.097656 C 8.941406 58.589844 9.535156 60.007812 10.289062 61.324219 L 7.660156 65.84375 L 12.613281 70.796875 L 17.054688 68.125 C 18.394531 68.898438 19.835938 69.507812 21.359375 69.925781 L 22.621094 74.992188 L 29.625 74.992188 L 30.953125 69.972656 C 32.539062 69.550781 34.039062 68.925781 35.425781 68.125 L 39.867188 70.796875 L 44.820312 65.84375 L 42.195312 61.324219 C 42.945312 60.007812 43.539062 58.589844 43.949219 57.097656 L 49.015625 55.835938 L 49.015625 48.835938 L 43.996094 47.503906 C 43.574219 45.917969 42.949219 44.417969 42.148438 43.03125 Z M 39.753906 57.121094 C 39.613281 57.507812 39.453125 57.886719 39.28125 58.261719 C 37.835938 61.371094 35.316406 63.875 32.195312 65.296875 C 31.910156 65.425781 31.621094 65.546875 31.328125 65.660156 C 29.746094 66.257812 28.03125 66.589844 26.238281 66.589844 C 24.449219 66.589844 22.734375 66.257812 21.152344 65.660156 C 20.828125 65.539062 20.511719 65.402344 20.199219 65.257812 C 17.117188 63.828125 14.628906 61.339844 13.199219 58.257812 C 13.027344 57.886719 12.867188 57.507812 12.726562 57.121094 C 12.171875 55.589844 11.867188 53.9375 11.867188 52.214844 C 11.867188 50.425781 12.199219 48.710938 12.796875 47.128906 C 12.910156 46.835938 13.03125 46.546875 13.160156 46.261719 C 14.582031 43.140625 17.089844 40.621094 20.199219 39.175781 C 20.570312 39.003906 20.949219 38.84375 21.335938 38.703125 C 22.867188 38.148438 24.519531 37.84375 26.238281 37.84375 C 27.960938 37.84375 29.613281 38.148438 31.140625 38.703125 C 31.5 38.832031 31.851562 38.980469 32.195312 39.136719 C 35.34375 40.574219 37.882812 43.113281 39.320312 46.261719 C 39.449219 46.546875 39.570312 46.835938 39.683594 47.128906 C 40.28125 48.710938 40.613281 50.425781 40.613281 52.214844 C 40.613281 53.9375 40.308594 55.589844 39.753906 57.121094 Z M 39.753906 57.121094 " fill-opacity="1" fill-rule="nonzero"/></g><path fill="#5ce1e6" d="M 34.363281 25.148438 L 32.292969 28.714844 L 36.199219 32.621094 L 39.699219 30.511719 C 40.753906 31.125 41.894531 31.605469 43.097656 31.933594 L 44.089844 35.925781 L 49.613281 35.925781 L 50.660156 31.96875 C 51.910156 31.640625 53.09375 31.144531 54.1875 30.511719 L 57.691406 32.621094 L 61.59375 28.714844 L 59.523438 25.148438 C 60.117188 24.113281 60.585938 22.992188 60.910156 21.816406 L 64.902344 20.820312 L 64.902344 15.300781 L 60.945312 14.25 C 60.613281 13 60.121094 11.816406 59.488281 10.722656 L 61.597656 7.222656 L 57.691406 3.316406 L 54.125 5.386719 C 53.050781 4.773438 51.886719 4.292969 50.660156 3.96875 L 49.613281 0.0078125 L 44.089844 0.0078125 L 43.097656 4.003906 C 41.917969 4.328125 40.800781 4.792969 39.765625 5.386719 L 36.199219 3.316406 L 32.292969 7.222656 L 34.398438 10.726562 C 33.769531 11.816406 33.273438 13 32.945312 14.25 L 28.984375 15.300781 L 28.984375 20.824219 L 32.980469 21.816406 C 33.300781 22.996094 33.769531 24.113281 34.363281 25.148438 Z M 36.34375 13.957031 C 36.433594 13.722656 36.527344 13.496094 36.628906 13.273438 C 37.75 10.8125 39.726562 8.824219 42.179688 7.683594 C 42.472656 7.546875 42.773438 7.421875 43.078125 7.3125 C 44.285156 6.875 45.585938 6.632812 46.945312 6.632812 C 48.300781 6.632812 49.605469 6.875 50.808594 7.3125 C 51.09375 7.414062 51.367188 7.53125 51.640625 7.652344 C 54.125 8.785156 56.125 10.789062 57.257812 13.273438 C 57.363281 13.496094 57.457031 13.722656 57.546875 13.957031 C 58.019531 15.203125 58.277344 16.554688 58.277344 17.96875 C 58.277344 19.324219 58.039062 20.628906 57.601562 21.835938 C 57.488281 22.140625 57.363281 22.441406 57.226562 22.734375 C 56.089844 25.183594 54.101562 27.160156 51.640625 28.28125 C 51.414062 28.386719 51.1875 28.480469 50.957031 28.570312 C 49.707031 29.042969 48.355469 29.300781 46.945312 29.300781 C 45.53125 29.300781 44.179688 29.042969 42.933594 28.570312 C 42.675781 28.472656 42.425781 28.367188 42.179688 28.25 C 39.75 27.125 37.789062 25.160156 36.660156 22.734375 C 36.523438 22.441406 36.398438 22.140625 36.285156 21.832031 C 35.847656 20.628906 35.609375 19.324219 35.609375 17.96875 C 35.609375 16.554688 35.871094 15.203125 36.34375 13.957031 Z M 36.34375 13.957031 " fill-opacity="1" fill-rule="nonzero"/><g clip-path="url(#3ba23aa486)"><path fill="#5ce1e6" d="M 71.527344 47.191406 L 71.527344 43.632812 L 68.976562 42.957031 C 68.765625 42.152344 68.449219 41.390625 68.039062 40.683594 L 69.398438 38.429688 L 66.882812 35.914062 L 64.585938 37.246094 C 63.890625 36.851562 63.140625 36.539062 62.351562 36.332031 L 61.675781 33.78125 L 58.117188 33.78125 L 57.476562 36.355469 C 56.71875 36.5625 56 36.863281 55.332031 37.246094 L 53.03125 35.914062 L 50.515625 38.429688 L 51.875 40.683594 C 51.46875 41.390625 51.148438 42.152344 50.9375 42.957031 L 48.386719 43.632812 L 48.386719 47.191406 L 50.960938 47.832031 C 51.167969 48.589844 51.46875 49.3125 51.851562 49.980469 L 50.515625 52.277344 L 53.035156 54.792969 L 55.289062 53.433594 C 55.96875 53.828125 56.703125 54.136719 57.476562 54.351562 L 58.117188 56.925781 L 61.675781 56.925781 L 62.351562 54.375 C 63.160156 54.160156 63.921875 53.84375 64.625 53.433594 L 66.882812 54.792969 L 69.398438 52.277344 L 68.0625 49.980469 C 68.445312 49.308594 68.746094 48.589844 68.957031 47.832031 Z M 66.824219 47.84375 C 66.753906 48.039062 66.671875 48.234375 66.582031 48.421875 C 65.851562 50 64.570312 51.273438 62.984375 51.996094 C 62.839844 52.0625 62.691406 52.125 62.542969 52.183594 C 61.738281 52.488281 60.867188 52.65625 59.957031 52.65625 C 59.046875 52.65625 58.175781 52.488281 57.371094 52.183594 C 57.207031 52.121094 57.046875 52.050781 56.886719 51.976562 C 55.324219 51.25 54.058594 49.988281 53.332031 48.421875 C 53.242188 48.234375 53.164062 48.039062 53.089844 47.84375 C 52.808594 47.066406 52.65625 46.226562 52.65625 45.351562 C 52.65625 44.441406 52.824219 43.570312 53.125 42.765625 C 53.183594 42.617188 53.246094 42.46875 53.3125 42.328125 C 54.035156 40.742188 55.308594 39.460938 56.886719 38.726562 C 57.074219 38.640625 57.269531 38.558594 57.464844 38.484375 C 58.242188 38.203125 59.082031 38.050781 59.957031 38.050781 C 60.832031 38.050781 61.671875 38.203125 62.449219 38.484375 C 62.628906 38.550781 62.808594 38.625 62.984375 38.707031 C 64.582031 39.4375 65.871094 40.726562 66.601562 42.328125 C 66.667969 42.472656 66.730469 42.617188 66.789062 42.765625 C 67.089844 43.570312 67.261719 44.441406 67.261719 45.351562 C 67.261719 46.226562 67.105469 47.066406 66.824219 47.84375 Z M 66.824219 47.84375 " fill-opacity="1" fill-rule="nonzero"/></g><path fill="#ffffff" d="M 46.945312 8.3125 C 41.613281 8.3125 37.289062 12.636719 37.289062 17.96875 C 37.289062 23.300781 41.609375 27.625 46.945312 27.625 C 52.277344 27.625 56.601562 23.300781 56.601562 17.96875 C 56.601562 12.636719 52.277344 8.3125 46.945312 8.3125 Z M 46.945312 26.027344 C 42.492188 26.027344 38.882812 22.417969 38.882812 17.96875 C 38.882812 13.515625 42.492188 9.90625 46.945312 9.90625 C 51.394531 9.90625 55.003906 13.515625 55.003906 17.96875 C 55.003906 22.421875 51.398438 26.027344 46.945312 26.027344 Z M 46.945312 26.027344 " fill-opacity="1" fill-rule="nonzero"/><path fill="#ffffff" d="M 47.230469 18.382812 L 47.230469 13.472656 L 45.5625 13.472656 L 45.5625 20.050781 L 52.140625 20.050781 L 52.140625 18.382812 Z M 47.230469 18.382812 " fill-opacity="1" fill-rule="nonzero"/><path fill="#ffffff" d="M 58.234375 49.070312 L 54.960938 45.972656 C 54.703125 45.722656 54.695312 45.3125 54.949219 45.054688 L 55.371094 44.628906 C 55.621094 44.375 56.035156 44.375 56.285156 44.632812 L 58.234375 46.648438 C 58.492188 46.914062 58.917969 46.90625 59.167969 46.632812 L 63.683594 41.671875 C 63.925781 41.40625 64.335938 41.390625 64.597656 41.636719 L 64.953125 41.972656 C 65.210938 42.214844 65.21875 42.621094 64.976562 42.878906 L 59.140625 49.042969 C 58.894531 49.300781 58.488281 49.3125 58.234375 49.070312 Z M 58.234375 49.070312 " fill-opacity="1" fill-rule="nonzero"/><path fill="#ffffff" d="M 29.253906 41.964844 L 23.226562 41.964844 C 23.070312 41.964844 22.945312 42.09375 22.945312 42.246094 L 22.945312 44.707031 C 22.945312 44.808594 23.03125 44.894531 23.136719 44.894531 L 29.253906 44.894531 C 29.410156 44.894531 29.535156 44.769531 29.535156 44.613281 L 29.535156 42.246094 C 29.535156 42.09375 29.410156 41.964844 29.253906 41.964844 Z M 29.253906 41.964844 " fill-opacity="1" fill-rule="nonzero"/><path fill="#ffffff" d="M 33 42.699219 L 30.269531 42.699219 L 30.269531 44.804688 C 30.269531 45.257812 29.898438 45.628906 29.445312 45.628906 L 22.746094 45.628906 C 22.453125 45.628906 22.214844 45.386719 22.214844 45.09375 L 22.214844 42.699219 L 19.484375 42.699219 C 18.96875 42.699219 18.550781 43.117188 18.550781 43.628906 L 18.550781 61.539062 C 18.550781 62.050781 18.96875 62.46875 19.484375 62.46875 L 33 62.46875 C 33.511719 62.46875 33.929688 62.050781 33.929688 61.539062 L 33.929688 43.628906 C 33.929688 43.117188 33.511719 42.699219 33 42.699219 Z M 31.367188 56.246094 L 31.367188 56.609375 L 21.847656 56.609375 L 21.847656 55.878906 L 31.367188 55.878906 Z M 31.367188 53.316406 L 31.367188 53.683594 L 21.847656 53.683594 L 21.847656 52.949219 L 31.367188 52.949219 Z M 31.367188 49.65625 L 31.367188 50.019531 L 21.847656 50.019531 L 21.847656 49.289062 L 31.367188 49.289062 Z M 31.367188 49.65625 " fill-opacity="1" fill-rule="nonzero"/></svg>