<svg xmlns="http://www.w3.org/2000/svg" width="50" zoomAndPan="magnify" viewBox="0 0 37.5 37.499999" height="50"
     preserveAspectRatio="xMidYMid meet" version="1.0"><defs><clipPath id="8f8c536001"><path d="M 5 22 L 36.582031 22 L 36.582031 37 L 5 37 Z M 5 22 " clip-rule="nonzero"/></clipPath><clipPath id="f283457c86"><path d="M 5 25 L 36.582031 25 L 36.582031 37 L 5 37 Z M 5 25 " clip-rule="nonzero"/></clipPath><clipPath id="c95db197db"><path d="M 0.316406 21 L 7 21 L 7 36 L 0.316406 36 Z M 0.316406 21 " clip-rule="nonzero"/></clipPath></defs><g clip-path="url(#8f8c536001)"><path fill="#ffe0b2" d="M 36.390625 26.464844 C 36.195312 27.054688 28.960938 33.613281 26.703125 35.3125 C 25.925781 35.902344 25.058594 36.277344 24.097656 36.441406 C 23.140625 36.601562 22.195312 36.53125 21.269531 36.230469 L 13.070312 33.882812 C 11.878906 33.539062 10.664062 33.367188 9.421875 33.371094 L 5.933594 33.371094 L 5.933594 23.980469 L 10.027344 22.523438 C 10.917969 22.046875 11.84375 21.964844 12.800781 22.277344 L 23.324219 26.359375 C 23.726562 26.496094 24.070312 26.722656 24.351562 27.042969 C 24.632812 27.363281 24.816406 27.730469 24.898438 28.148438 C 24.941406 28.34375 24.960938 28.539062 24.953125 28.738281 C 25.210938 28.613281 25.632812 28.363281 26.164062 28.039062 C 28.363281 26.679688 32.320312 24.011719 32.988281 23.660156 C 33.265625 23.503906 33.5625 23.40625 33.878906 23.367188 C 34.199219 23.328125 34.511719 23.355469 34.816406 23.445312 C 35.125 23.53125 35.402344 23.679688 35.652344 23.878906 C 35.902344 24.082031 36.101562 24.324219 36.25 24.605469 C 36.566406 25.207031 36.613281 25.828125 36.390625 26.464844 Z M 36.390625 26.464844 " fill-opacity="1" fill-rule="nonzero"/></g><g clip-path="url(#f283457c86)"><path fill="#fecc81" d="M 36.390625 25.214844 C 36.195312 25.804688 28.960938 32.363281 26.703125 34.058594 C 25.929688 34.648438 25.058594 35.023438 24.097656 35.1875 C 23.140625 35.347656 22.195312 35.277344 21.269531 34.976562 L 13.070312 32.628906 C 11.878906 32.289062 10.664062 32.117188 9.425781 32.117188 L 5.933594 32.117188 L 5.933594 33.371094 L 9.425781 33.371094 C 10.664062 33.371094 11.878906 33.542969 13.070312 33.882812 L 21.269531 36.230469 C 22.195312 36.53125 23.140625 36.601562 24.097656 36.4375 C 25.058594 36.277344 25.929688 35.902344 26.703125 35.3125 C 28.960938 33.613281 36.195312 27.054688 36.390625 26.464844 C 36.550781 26 36.5625 25.527344 36.429688 25.050781 C 36.414062 25.105469 36.410156 25.160156 36.390625 25.214844 Z M 36.390625 25.214844 " fill-opacity="1" fill-rule="nonzero"/></g><path fill="#81c785" d="M 33.398438 1.445312 L 33.398438 17.722656 C 33.351562 18.042969 33.210938 18.324219 32.980469 18.554688 C 32.75 18.785156 32.472656 18.925781 32.152344 18.972656 L 4.6875 18.972656 C 4.363281 18.925781 4.085938 18.785156 3.855469 18.554688 C 3.625 18.324219 3.484375 18.042969 3.4375 17.722656 L 3.4375 1.445312 C 3.484375 1.121094 3.625 0.84375 3.855469 0.613281 C 4.085938 0.378906 4.363281 0.242188 4.683594 0.191406 L 32.148438 0.191406 C 32.472656 0.242188 32.75 0.378906 32.980469 0.613281 C 33.210938 0.84375 33.351562 1.121094 33.398438 1.445312 Z M 33.398438 1.445312 " fill-opacity="1" fill-rule="nonzero"/><path fill="#66bb6a" d="M 4.6875 17.722656 L 4.6875 1.445312 C 4.734375 1.121094 4.871094 0.84375 5.101562 0.613281 C 5.332031 0.378906 5.609375 0.242188 5.933594 0.191406 L 4.683594 0.191406 C 4.363281 0.242188 4.085938 0.378906 3.855469 0.613281 C 3.625 0.84375 3.484375 1.121094 3.4375 1.445312 L 3.4375 17.722656 C 3.484375 18.042969 3.625 18.324219 3.855469 18.554688 C 4.085938 18.785156 4.363281 18.925781 4.6875 18.972656 L 5.933594 18.972656 C 5.609375 18.925781 5.332031 18.785156 5.101562 18.554688 C 4.871094 18.324219 4.734375 18.042969 4.6875 17.722656 Z M 4.6875 17.722656 " fill-opacity="1" fill-rule="nonzero"/><path fill="#abe4a3" d="M 30.902344 5.199219 L 30.902344 13.964844 C 30.566406 13.945312 30.238281 13.992188 29.921875 14.113281 C 29.605469 14.230469 29.328125 14.410156 29.089844 14.652344 C 28.851562 14.890625 28.671875 15.167969 28.550781 15.484375 C 28.433594 15.804688 28.382812 16.128906 28.40625 16.46875 L 8.429688 16.46875 C 8.453125 16.128906 8.402344 15.804688 8.285156 15.484375 C 8.164062 15.167969 7.984375 14.890625 7.746094 14.652344 C 7.507812 14.410156 7.230469 14.230469 6.914062 14.113281 C 6.597656 13.992188 6.269531 13.945312 5.933594 13.964844 L 5.933594 5.199219 C 6.269531 5.222656 6.597656 5.171875 6.914062 5.054688 C 7.230469 4.933594 7.507812 4.753906 7.746094 4.515625 C 7.984375 4.273438 8.164062 3.996094 8.285156 3.679688 C 8.402344 3.363281 8.453125 3.035156 8.429688 2.695312 L 28.40625 2.695312 C 28.398438 3.03125 28.457031 3.351562 28.582031 3.664062 C 28.707031 3.972656 28.886719 4.246094 29.125 4.480469 C 29.359375 4.71875 29.628906 4.898438 29.941406 5.023438 C 30.25 5.148438 30.570312 5.207031 30.902344 5.199219 Z M 30.902344 5.199219 " fill-opacity="1" fill-rule="nonzero"/><path fill="#a5d5a7" d="M 7.183594 13.964844 L 7.183594 5.199219 C 7.519531 5.222656 7.847656 5.171875 8.164062 5.054688 C 8.476562 4.933594 8.753906 4.753906 8.996094 4.515625 C 9.234375 4.273438 9.414062 3.996094 9.53125 3.679688 C 9.652344 3.363281 9.699219 3.035156 9.679688 2.695312 L 8.429688 2.695312 C 8.453125 3.035156 8.402344 3.363281 8.285156 3.679688 C 8.164062 3.996094 7.984375 4.273438 7.746094 4.515625 C 7.507812 4.753906 7.230469 4.933594 6.914062 5.054688 C 6.597656 5.171875 6.269531 5.222656 5.933594 5.199219 L 5.933594 13.964844 C 6.269531 13.945312 6.597656 13.992188 6.914062 14.113281 C 7.230469 14.230469 7.507812 14.410156 7.746094 14.652344 C 7.984375 14.890625 8.164062 15.167969 8.285156 15.484375 C 8.402344 15.804688 8.453125 16.128906 8.429688 16.46875 L 9.679688 16.46875 C 9.699219 16.128906 9.652344 15.804688 9.53125 15.484375 C 9.414062 15.167969 9.234375 14.890625 8.996094 14.652344 C 8.753906 14.410156 8.476562 14.230469 8.164062 14.113281 C 7.847656 13.992188 7.519531 13.945312 7.183594 13.964844 Z M 7.183594 13.964844 " fill-opacity="1" fill-rule="nonzero"/><path fill="#cdf8c8" d="M 23.410156 9.582031 C 23.410156 9.910156 23.378906 10.238281 23.316406 10.558594 C 23.25 10.882812 23.15625 11.195312 23.03125 11.5 C 22.90625 11.804688 22.753906 12.089844 22.570312 12.363281 C 22.386719 12.636719 22.179688 12.890625 21.949219 13.125 C 21.71875 13.355469 21.464844 13.5625 21.191406 13.746094 C 20.917969 13.929688 20.632812 14.082031 20.328125 14.210938 C 20.027344 14.335938 19.714844 14.429688 19.390625 14.496094 C 19.070312 14.558594 18.746094 14.589844 18.417969 14.589844 C 18.089844 14.589844 17.765625 14.558594 17.445312 14.496094 C 17.121094 14.429688 16.808594 14.335938 16.507812 14.210938 C 16.203125 14.082031 15.917969 13.929688 15.644531 13.746094 C 15.371094 13.5625 15.117188 13.355469 14.886719 13.125 C 14.65625 12.890625 14.449219 12.636719 14.265625 12.363281 C 14.082031 12.089844 13.929688 11.804688 13.804688 11.5 C 13.679688 11.195312 13.585938 10.882812 13.519531 10.558594 C 13.457031 10.238281 13.425781 9.910156 13.425781 9.582031 C 13.425781 9.253906 13.457031 8.929688 13.519531 8.605469 C 13.585938 8.285156 13.679688 7.96875 13.804688 7.667969 C 13.929688 7.363281 14.082031 7.074219 14.265625 6.800781 C 14.449219 6.527344 14.65625 6.273438 14.886719 6.042969 C 15.117188 5.808594 15.371094 5.601562 15.644531 5.417969 C 15.917969 5.234375 16.203125 5.082031 16.507812 4.957031 C 16.808594 4.832031 17.121094 4.734375 17.445312 4.671875 C 17.765625 4.605469 18.089844 4.574219 18.417969 4.574219 C 18.746094 4.574219 19.070312 4.605469 19.390625 4.671875 C 19.714844 4.734375 20.027344 4.832031 20.328125 4.957031 C 20.632812 5.082031 20.917969 5.234375 21.191406 5.417969 C 21.464844 5.601562 21.71875 5.808594 21.949219 6.042969 C 22.179688 6.273438 22.386719 6.527344 22.570312 6.800781 C 22.753906 7.074219 22.90625 7.363281 23.03125 7.667969 C 23.15625 7.96875 23.25 8.285156 23.316406 8.605469 C 23.378906 8.929688 23.410156 9.253906 23.410156 9.582031 Z M 23.410156 9.582031 " fill-opacity="1" fill-rule="nonzero"/><path fill="#81c785" d="M 14.671875 9.582031 C 14.671875 8.972656 14.78125 8.382812 14.996094 7.8125 C 15.210938 7.242188 15.519531 6.730469 15.921875 6.273438 C 16.324219 5.816406 16.792969 5.445312 17.332031 5.160156 C 17.867188 4.875 18.4375 4.695312 19.042969 4.617188 C 18.691406 4.570312 18.335938 4.5625 17.980469 4.589844 C 17.628906 4.621094 17.28125 4.6875 16.941406 4.789062 C 16.601562 4.894531 16.273438 5.03125 15.964844 5.203125 C 15.652344 5.378906 15.363281 5.582031 15.097656 5.816406 C 14.828125 6.050781 14.589844 6.3125 14.378906 6.597656 C 14.164062 6.886719 13.984375 7.191406 13.839844 7.515625 C 13.691406 7.839844 13.582031 8.175781 13.507812 8.523438 C 13.429688 8.875 13.394531 9.226562 13.394531 9.582031 C 13.394531 9.9375 13.429688 10.292969 13.507812 10.640625 C 13.582031 10.988281 13.691406 11.324219 13.839844 11.648438 C 13.984375 11.976562 14.164062 12.28125 14.378906 12.566406 C 14.589844 12.851562 14.828125 13.113281 15.097656 13.347656 C 15.363281 13.585938 15.652344 13.789062 15.964844 13.960938 C 16.273438 14.132812 16.601562 14.273438 16.941406 14.375 C 17.28125 14.480469 17.628906 14.546875 17.980469 14.574219 C 18.335938 14.601562 18.691406 14.59375 19.042969 14.546875 C 18.4375 14.472656 17.867188 14.292969 17.332031 14.007812 C 16.792969 13.722656 16.324219 13.351562 15.921875 12.894531 C 15.519531 12.4375 15.210938 11.921875 14.996094 11.351562 C 14.78125 10.78125 14.671875 10.191406 14.671875 9.582031 Z M 14.671875 9.582031 " fill-opacity="1" fill-rule="nonzero"/><path fill="#fecc81" d="M 26.164062 28.039062 C 26.132812 28.550781 25.988281 29.03125 25.726562 29.476562 C 25.464844 29.917969 25.113281 30.277344 24.679688 30.554688 C 24.191406 30.855469 23.664062 31.007812 23.09375 31.011719 C 22.847656 31.011719 22.601562 30.980469 22.363281 30.917969 L 15.957031 29.269531 C 15.792969 29.226562 15.664062 29.132812 15.574219 28.984375 C 15.488281 28.835938 15.464844 28.675781 15.503906 28.507812 C 15.546875 28.34375 15.644531 28.214844 15.792969 28.125 C 15.941406 28.035156 16.097656 28.011719 16.265625 28.054688 L 22.675781 29.703125 C 23.15625 29.824219 23.605469 29.753906 24.023438 29.488281 C 24.457031 29.210938 24.738281 28.824219 24.867188 28.324219 C 24.878906 28.265625 24.890625 28.210938 24.898438 28.148438 C 24.941406 28.34375 24.960938 28.539062 24.953125 28.738281 C 25.210938 28.613281 25.632812 28.363281 26.164062 28.039062 Z M 26.164062 28.039062 " fill-opacity="1" fill-rule="nonzero"/><g clip-path="url(#c95db197db)"><path fill="#36c2d6" d="M 0.316406 21.476562 L 6.558594 21.476562 L 6.558594 35.25 L 0.316406 35.25 Z M 0.316406 21.476562 " fill-opacity="1" fill-rule="nonzero"/><path fill="#89d3e2" d="M 2.1875 28.988281 L 2.1875 21.476562 L 0.316406 21.476562 L 0.316406 35.25 L 6.558594 35.25 L 6.558594 34.960938 C 5.925781 34.761719 5.335938 34.46875 4.796875 34.078125 C 4.257812 33.691406 3.792969 33.230469 3.398438 32.691406 C 3.003906 32.15625 2.707031 31.570312 2.5 30.9375 C 2.292969 30.304688 2.1875 29.65625 2.1875 28.988281 Z M 2.1875 28.988281 " fill-opacity="1" fill-rule="nonzero"/></g><path fill="#ffd54f" d="M 20.914062 10.835938 C 20.90625 11.082031 20.851562 11.316406 20.753906 11.542969 C 20.65625 11.769531 20.519531 11.96875 20.347656 12.140625 C 20.171875 12.316406 19.972656 12.453125 19.746094 12.550781 C 19.523438 12.648438 19.289062 12.703125 19.042969 12.710938 C 19.042969 12.886719 18.980469 13.035156 18.859375 13.15625 C 18.738281 13.277344 18.589844 13.339844 18.417969 13.339844 C 18.246094 13.339844 18.097656 13.277344 17.976562 13.15625 C 17.855469 13.035156 17.792969 12.886719 17.792969 12.710938 L 17.167969 12.710938 C 16.996094 12.710938 16.851562 12.652344 16.726562 12.53125 C 16.605469 12.40625 16.546875 12.257812 16.546875 12.085938 C 16.546875 11.914062 16.605469 11.765625 16.726562 11.644531 C 16.851562 11.523438 16.996094 11.460938 17.167969 11.460938 L 19.042969 11.460938 C 19.207031 11.441406 19.347656 11.375 19.464844 11.257812 C 19.582031 11.140625 19.648438 11 19.667969 10.835938 C 19.648438 10.667969 19.582031 10.527344 19.464844 10.410156 C 19.347656 10.292969 19.207031 10.226562 19.042969 10.207031 L 17.792969 10.207031 C 17.546875 10.199219 17.3125 10.144531 17.089844 10.046875 C 16.863281 9.949219 16.664062 9.8125 16.488281 9.636719 C 16.316406 9.464844 16.179688 9.265625 16.082031 9.039062 C 15.984375 8.8125 15.929688 8.578125 15.921875 8.332031 C 15.929688 8.085938 15.984375 7.847656 16.082031 7.625 C 16.179688 7.398438 16.316406 7.199219 16.488281 7.023438 C 16.664062 6.847656 16.863281 6.710938 17.089844 6.613281 C 17.3125 6.515625 17.546875 6.460938 17.792969 6.453125 C 17.792969 6.28125 17.855469 6.132812 17.976562 6.011719 C 18.097656 5.886719 18.246094 5.828125 18.417969 5.828125 C 18.589844 5.828125 18.738281 5.886719 18.859375 6.011719 C 18.980469 6.132812 19.042969 6.28125 19.042969 6.453125 L 19.667969 6.453125 C 19.839844 6.453125 19.984375 6.515625 20.109375 6.636719 C 20.230469 6.757812 20.289062 6.90625 20.289062 7.078125 C 20.289062 7.25 20.230469 7.398438 20.109375 7.519531 C 19.984375 7.644531 19.839844 7.703125 19.667969 7.703125 L 17.792969 7.703125 C 17.628906 7.722656 17.488281 7.789062 17.371094 7.90625 C 17.253906 8.023438 17.1875 8.164062 17.167969 8.332031 C 17.1875 8.496094 17.253906 8.636719 17.371094 8.753906 C 17.488281 8.871094 17.628906 8.9375 17.792969 8.957031 L 19.042969 8.957031 C 19.289062 8.964844 19.523438 9.019531 19.746094 9.117188 C 19.972656 9.214844 20.171875 9.351562 20.347656 9.527344 C 20.519531 9.703125 20.65625 9.902344 20.753906 10.128906 C 20.851562 10.351562 20.90625 10.589844 20.914062 10.835938 Z M 20.914062 10.835938 " fill-opacity="1" fill-rule="nonzero"/><path fill="#cdf8c8" d="M 28.40625 9.582031 C 28.40625 9.75 28.375 9.910156 28.308594 10.0625 C 28.246094 10.214844 28.15625 10.351562 28.039062 10.46875 C 27.921875 10.585938 27.789062 10.675781 27.632812 10.738281 C 27.480469 10.804688 27.324219 10.835938 27.15625 10.835938 C 26.992188 10.835938 26.832031 10.804688 26.679688 10.738281 C 26.527344 10.675781 26.390625 10.585938 26.273438 10.46875 C 26.15625 10.351562 26.066406 10.214844 26.003906 10.0625 C 25.941406 9.910156 25.910156 9.75 25.910156 9.582031 C 25.910156 9.417969 25.941406 9.257812 26.003906 9.105469 C 26.066406 8.949219 26.15625 8.816406 26.273438 8.699219 C 26.390625 8.582031 26.527344 8.488281 26.679688 8.425781 C 26.832031 8.363281 26.992188 8.332031 27.15625 8.332031 C 27.324219 8.332031 27.480469 8.363281 27.632812 8.425781 C 27.789062 8.488281 27.921875 8.582031 28.039062 8.699219 C 28.15625 8.816406 28.246094 8.949219 28.308594 9.105469 C 28.375 9.257812 28.40625 9.417969 28.40625 9.582031 Z M 28.40625 9.582031 " fill-opacity="1" fill-rule="nonzero"/><path fill="#cdf8c8" d="M 10.925781 9.582031 C 10.925781 9.75 10.894531 9.910156 10.832031 10.0625 C 10.769531 10.214844 10.679688 10.351562 10.5625 10.46875 C 10.445312 10.585938 10.308594 10.675781 10.15625 10.738281 C 10.003906 10.804688 9.84375 10.835938 9.679688 10.835938 C 9.511719 10.835938 9.355469 10.804688 9.203125 10.738281 C 9.046875 10.675781 8.914062 10.585938 8.796875 10.46875 C 8.679688 10.351562 8.589844 10.214844 8.527344 10.0625 C 8.460938 9.910156 8.429688 9.75 8.429688 9.582031 C 8.429688 9.417969 8.460938 9.257812 8.527344 9.105469 C 8.589844 8.949219 8.679688 8.816406 8.796875 8.699219 C 8.914062 8.582031 9.046875 8.488281 9.203125 8.425781 C 9.355469 8.363281 9.511719 8.332031 9.679688 8.332031 C 9.84375 8.332031 10.003906 8.363281 10.15625 8.425781 C 10.308594 8.488281 10.445312 8.582031 10.5625 8.699219 C 10.679688 8.816406 10.769531 8.949219 10.832031 9.105469 C 10.894531 9.257812 10.925781 9.417969 10.925781 9.582031 Z M 10.925781 9.582031 " fill-opacity="1" fill-rule="nonzero"/></svg>