<svg xmlns="http://www.w3.org/2000/svg" width="50" zoomAndPan="magnify" viewBox="0 0 37.5 37.499999" height="50"
     preserveAspectRatio="xMidYMid meet" version="1.0"><defs><clipPath id="2899bbd0d0"><path d="M 0 3.03125 L 31 3.03125 L 31 34 L 0 34 Z M 0 3.03125 " clip-rule="nonzero"/></clipPath><clipPath id="650be5f2f5"><path d="M 11 3.03125 L 31 3.03125 L 31 34 L 11 34 Z M 11 3.03125 " clip-rule="nonzero"/></clipPath><clipPath id="f278c8dcd0"><path d="M 25 3.03125 L 37.007812 3.03125 L 37.007812 14 L 25 14 Z M 25 3.03125 " clip-rule="nonzero"/></clipPath><clipPath id="6869161bbc"><path d="M 25 3.03125 L 31 3.03125 L 31 9 L 25 9 Z M 25 3.03125 " clip-rule="nonzero"/></clipPath><clipPath id="4fcd54c2a9"><path d="M 26 3.03125 L 31 3.03125 L 31 9 L 26 9 Z M 26 3.03125 " clip-rule="nonzero"/></clipPath></defs><g clip-path="url(#2899bbd0d0)"><path fill="#fe646f" d="M 30.4375 16.496094 L 13.554688 33.457031 C 12.894531 34.117188 11.824219 34.117188 11.164062 33.457031 L 0.664062 22.90625 C 0.00390625 22.253906 0.00390625 21.171875 0.664062 20.507812 L 17.546875 3.550781 C 17.902344 3.199219 18.339844 3.03125 18.832031 3.058594 L 26.84375 3.488281 C 27.878906 3.539062 28.789062 3.738281 29.519531 4.472656 C 30.25 5.207031 30.453125 6.128906 30.507812 7.15625 L 30.925781 15.207031 C 30.953125 15.707031 30.785156 16.148438 30.4375 16.496094 Z M 30.4375 16.496094 " fill-opacity="1" fill-rule="evenodd"/></g><g clip-path="url(#650be5f2f5)"><path fill="#fd4755" d="M 18.367188 3.09375 C 18.515625 3.058594 18.671875 3.046875 18.832031 3.058594 L 26.84375 3.488281 C 27.878906 3.539062 28.789062 3.738281 29.519531 4.472656 C 30.25 5.207031 30.453125 6.128906 30.507812 7.15625 L 30.925781 15.207031 C 30.953125 15.707031 30.785156 16.148438 30.4375 16.496094 L 13.554688 33.457031 C 13.078125 33.933594 12.386719 34.066406 11.792969 33.855469 C 12.023438 33.773438 12.238281 33.640625 12.421875 33.457031 L 29.304688 16.496094 C 29.652344 16.148438 29.820312 15.707031 29.792969 15.207031 L 29.375 7.15625 C 29.320312 6.128906 29.117188 5.207031 28.386719 4.472656 C 27.65625 3.738281 26.746094 3.539062 25.710938 3.488281 Z M 18.367188 3.09375 " fill-opacity="1" fill-rule="evenodd"/></g><path fill="#eceff1" d="M 25.675781 6.460938 C 26.710938 6.460938 27.539062 7.300781 27.539062 8.332031 C 27.539062 9.359375 26.710938 10.203125 25.675781 10.203125 C 24.652344 10.203125 23.820312 9.359375 23.820312 8.332031 C 23.820312 7.300781 24.652344 6.460938 25.675781 6.460938 Z M 25.675781 6.460938 " fill-opacity="1" fill-rule="evenodd"/><g clip-path="url(#f278c8dcd0)"><path fill="#a79ba7" d="M 31.042969 3.828125 C 34.371094 3.828125 37.003906 6.027344 37.003906 8.632812 C 37.003906 11.242188 34.371094 13.441406 31.042969 13.441406 C 27.714844 13.441406 25.074219 11.242188 25.074219 8.632812 C 25.074219 6.027344 27.714844 3.828125 31.042969 3.828125 Z M 31.042969 5.042969 C 28.453125 5.042969 26.28125 6.605469 26.28125 8.632812 C 26.28125 10.664062 28.453125 12.226562 31.042969 12.226562 C 33.632812 12.226562 35.796875 10.664062 35.796875 8.632812 C 35.796875 6.605469 33.632812 5.042969 31.042969 5.042969 Z M 31.042969 5.042969 " fill-opacity="1" fill-rule="evenodd"/></g><g clip-path="url(#6869161bbc)"><path fill="#fe646f" d="M 26.042969 3.441406 L 26.84375 3.488281 C 27.878906 3.539062 28.789062 3.738281 29.519531 4.472656 C 30.25 5.207031 30.453125 6.128906 30.507812 7.15625 L 30.585938 8.714844 L 27.539062 8.3125 C 27.539062 7.839844 27.359375 7.371094 26.996094 7.003906 C 26.628906 6.636719 26.140625 6.449219 25.648438 6.460938 Z M 26.042969 3.441406 " fill-opacity="1" fill-rule="evenodd"/></g><g clip-path="url(#4fcd54c2a9)"><path fill="#fd4755" d="M 26.03125 3.507812 L 26.042969 3.441406 L 26.84375 3.488281 C 27.878906 3.539062 28.789062 3.738281 29.519531 4.472656 C 30.25 5.207031 30.453125 6.128906 30.507812 7.15625 L 30.585938 8.714844 L 29.449219 8.566406 L 29.375 7.15625 C 29.320312 6.128906 29.117188 5.207031 28.386719 4.472656 C 27.730469 3.816406 26.933594 3.585938 26.03125 3.507812 Z M 26.03125 3.507812 " fill-opacity="1" fill-rule="evenodd"/></g><path fill="#ffffff" d="M 18.6875 8.023438 C 18.984375 7.730469 19.460938 7.730469 19.757812 8.023438 C 21.105469 9.378906 24.640625 12.921875 25.988281 14.277344 C 26.128906 14.417969 26.210938 14.613281 26.210938 14.8125 C 26.210938 15.015625 26.128906 15.207031 25.988281 15.351562 C 23.628906 17.71875 14.160156 27.230469 11.804688 29.597656 C 11.511719 29.894531 11.03125 29.894531 10.738281 29.597656 C 9.390625 28.246094 5.855469 24.699219 4.503906 23.34375 C 4.363281 23.203125 4.285156 23.011719 4.285156 22.808594 C 4.285156 22.609375 4.363281 22.414062 4.503906 22.273438 C 6.863281 19.902344 16.332031 10.390625 18.6875 8.023438 Z M 18.6875 8.023438 " fill-opacity="1" fill-rule="evenodd"/><path fill="#d1d1d6" d="M 11.835938 29.566406 L 11.804688 29.597656 C 11.511719 29.894531 11.03125 29.894531 10.738281 29.597656 L 4.503906 23.34375 C 4.363281 23.203125 4.285156 23.011719 4.285156 22.808594 C 4.285156 22.609375 4.363281 22.414062 4.503906 22.273438 L 18.6875 8.023438 C 18.984375 7.730469 19.460938 7.730469 19.757812 8.023438 L 19.789062 8.058594 L 5.636719 22.273438 C 5.496094 22.414062 5.417969 22.609375 5.417969 22.808594 C 5.417969 23.011719 5.496094 23.203125 5.636719 23.34375 Z M 11.835938 29.566406 " fill-opacity="1" fill-rule="evenodd"/><path fill="#ffd064" d="M 20.59375 33.953125 C 25.386719 33.953125 29.296875 30.027344 29.296875 25.210938 C 29.296875 20.398438 25.386719 16.472656 20.59375 16.472656 C 15.800781 16.472656 11.890625 20.398438 11.890625 25.210938 C 11.890625 30.027344 15.800781 33.953125 20.59375 33.953125 Z M 20.59375 33.953125 " fill-opacity="1" fill-rule="evenodd"/><path fill="#f5b829" d="M 20.226562 16.480469 C 24.863281 16.671875 28.5625 20.507812 28.5625 25.210938 C 28.5625 29.917969 24.863281 33.753906 20.226562 33.945312 C 20.347656 33.953125 20.472656 33.953125 20.59375 33.953125 C 25.402344 33.953125 29.296875 30.039062 29.296875 25.210938 C 29.296875 20.386719 25.402344 16.472656 20.59375 16.472656 C 20.472656 16.472656 20.347656 16.472656 20.226562 16.480469 Z M 20.226562 16.480469 " fill-opacity="1" fill-rule="evenodd"/><path fill="#ffc338" d="M 20.59375 31.886719 C 24.253906 31.886719 27.238281 28.890625 27.238281 25.210938 C 27.238281 21.535156 24.253906 18.539062 20.59375 18.539062 C 16.933594 18.539062 13.949219 21.535156 13.949219 25.210938 C 13.949219 28.890625 16.933594 31.886719 20.59375 31.886719 Z M 20.59375 31.886719 " fill-opacity="1" fill-rule="evenodd"/><path fill="#f5b829" d="M 14.742188 25.210938 C 14.742188 21.660156 17.503906 18.753906 20.988281 18.550781 C 20.859375 18.542969 20.726562 18.539062 20.59375 18.539062 C 16.921875 18.539062 13.949219 21.527344 13.949219 25.210938 C 13.949219 28.898438 16.921875 31.886719 20.59375 31.886719 C 20.726562 31.886719 20.859375 31.882812 20.988281 31.875 C 17.503906 31.667969 14.742188 28.765625 14.742188 25.210938 Z M 14.742188 25.210938 " fill-opacity="1" fill-rule="evenodd"/><path fill="#ffe177" d="M 23.128906 22.941406 C 23.261719 23.261719 23.113281 23.632812 22.792969 23.765625 C 22.472656 23.898438 22.105469 23.75 21.972656 23.429688 C 21.785156 22.972656 21.421875 22.710938 21.027344 22.613281 C 20.777344 22.546875 20.511719 22.542969 20.265625 22.59375 C 20.03125 22.640625 19.8125 22.738281 19.640625 22.878906 C 19.425781 23.050781 19.292969 23.300781 19.308594 23.613281 C 19.320312 23.894531 19.46875 24.089844 19.675781 24.226562 C 19.953125 24.410156 20.335938 24.507812 20.699219 24.570312 C 21.222656 24.65625 21.796875 24.800781 22.273438 25.089844 C 22.824219 25.425781 23.242188 25.929688 23.335938 26.703125 C 23.34375 26.761719 23.347656 26.832031 23.347656 26.914062 C 23.367188 27.621094 23.042969 28.148438 22.5625 28.519531 C 22.179688 28.808594 21.695312 28.988281 21.21875 29.070312 L 21.21875 29.4375 C 21.21875 29.785156 20.941406 30.066406 20.59375 30.066406 C 20.246094 30.066406 19.96875 29.785156 19.96875 29.4375 L 19.96875 29.058594 C 19.578125 28.980469 19.210938 28.835938 18.890625 28.621094 C 18.394531 28.292969 18.015625 27.804688 17.855469 27.15625 C 17.773438 26.820312 17.976562 26.480469 18.3125 26.398438 C 18.648438 26.316406 18.988281 26.523438 19.070312 26.859375 C 19.148438 27.171875 19.335938 27.410156 19.578125 27.574219 C 19.882812 27.777344 20.269531 27.875 20.667969 27.867188 C 20.730469 27.863281 20.8125 27.859375 20.90625 27.847656 C 21.238281 27.804688 21.574219 27.699219 21.808594 27.519531 C 21.988281 27.382812 22.105469 27.191406 22.101562 26.941406 C 22.101562 26.925781 22.097656 26.894531 22.09375 26.847656 C 22.054688 26.527344 21.871094 26.3125 21.628906 26.167969 C 21.3125 25.976562 20.894531 25.871094 20.5 25.808594 C 19.992188 25.726562 19.445312 25.570312 18.992188 25.277344 C 18.472656 24.933594 18.097656 24.429688 18.058594 23.671875 C 18.023438 22.921875 18.34375 22.320312 18.851562 21.90625 C 19.167969 21.648438 19.554688 21.46875 19.96875 21.375 L 19.96875 20.988281 C 19.96875 20.640625 20.246094 20.359375 20.59375 20.359375 C 20.941406 20.359375 21.21875 20.640625 21.21875 20.988281 L 21.21875 21.367188 C 21.257812 21.375 21.292969 21.382812 21.332031 21.394531 C 22.082031 21.585938 22.769531 22.082031 23.128906 22.941406 Z M 23.128906 22.941406 " fill-opacity="1" fill-rule="nonzero"/></svg>