<svg xmlns="http://www.w3.org/2000/svg" width="100" zoomAndPan="magnify" viewBox="0 0 75 74.999997" height="100"
     preserveAspectRatio="xMidYMid meet" version="1.0"><defs><clipPath id="eafbd56033"><path d="M 0 12.515625 L 75 12.515625 L 75 62.765625 L 0 62.765625 Z M 0 12.515625 " clip-rule="nonzero"/></clipPath></defs><g clip-path="url(#eafbd56033)"><path fill="#c1ff72" d="M 1.914062 53.527344 C 1.683594 53.292969 1.476562 53.042969 1.292969 52.769531 C 1.109375 52.496094 0.957031 52.207031 0.832031 51.90625 C 0.707031 51.601562 0.609375 51.289062 0.546875 50.96875 C 0.484375 50.644531 0.453125 50.320312 0.453125 49.992188 C 0.453125 49.664062 0.484375 49.339844 0.546875 49.015625 C 0.609375 48.695312 0.707031 48.382812 0.832031 48.078125 C 0.957031 47.777344 1.109375 47.488281 1.292969 47.214844 C 1.476562 46.941406 1.683594 46.691406 1.914062 46.457031 L 33.964844 14.40625 C 34.199219 14.175781 34.449219 13.96875 34.722656 13.785156 C 34.996094 13.601562 35.285156 13.449219 35.585938 13.324219 C 35.890625 13.199219 36.203125 13.101562 36.523438 13.039062 C 36.847656 12.976562 37.171875 12.945312 37.5 12.945312 C 37.828125 12.945312 38.152344 12.976562 38.476562 13.039062 C 38.796875 13.101562 39.109375 13.199219 39.414062 13.324219 C 39.714844 13.449219 40.003906 13.601562 40.277344 13.785156 C 40.550781 13.96875 40.800781 14.175781 41.035156 14.40625 L 73.085938 46.457031 C 73.316406 46.691406 73.523438 46.941406 73.707031 47.214844 C 73.890625 47.488281 74.042969 47.777344 74.167969 48.078125 C 74.292969 48.382812 74.390625 48.695312 74.453125 49.015625 C 74.515625 49.339844 74.546875 49.664062 74.546875 49.992188 C 74.546875 50.320312 74.515625 50.644531 74.453125 50.96875 C 74.390625 51.289062 74.292969 51.601562 74.167969 51.90625 C 74.042969 52.207031 73.890625 52.496094 73.707031 52.769531 C 73.523438 53.042969 73.316406 53.292969 73.085938 53.527344 L 66.019531 60.59375 C 65.785156 60.824219 65.535156 61.03125 65.261719 61.214844 C 64.988281 61.398438 64.699219 61.550781 64.398438 61.675781 C 64.09375 61.800781 63.78125 61.898438 63.460938 61.960938 C 63.136719 62.023438 62.8125 62.054688 62.484375 62.054688 C 62.15625 62.054688 61.832031 62.023438 61.507812 61.960938 C 61.1875 61.898438 60.875 61.800781 60.570312 61.675781 C 60.269531 61.550781 59.980469 61.398438 59.707031 61.214844 C 59.433594 61.03125 59.183594 60.824219 58.949219 60.59375 L 39.265625 40.910156 C 39.03125 40.675781 38.761719 40.492188 38.457031 40.367188 C 38.148438 40.238281 37.832031 40.175781 37.5 40.175781 C 37.167969 40.175781 36.851562 40.238281 36.542969 40.367188 C 36.238281 40.492188 35.96875 40.675781 35.734375 40.910156 L 16.050781 60.59375 C 15.816406 60.824219 15.566406 61.03125 15.292969 61.214844 C 15.019531 61.398438 14.730469 61.550781 14.429688 61.675781 C 14.125 61.800781 13.8125 61.898438 13.492188 61.960938 C 13.167969 62.023438 12.84375 62.054688 12.515625 62.054688 C 12.1875 62.054688 11.863281 62.023438 11.539062 61.960938 C 11.21875 61.898438 10.90625 61.800781 10.601562 61.675781 C 10.300781 61.550781 10.011719 61.398438 9.738281 61.214844 C 9.464844 61.03125 9.214844 60.824219 8.980469 60.59375 Z M 1.914062 53.527344 " fill-opacity="1" fill-rule="nonzero"/></g></svg>