<svg xmlns="http://www.w3.org/2000/svg" width="100" zoomAndPan="magnify" viewBox="0 0 75 74.999997" height="100"
     preserveAspectRatio="xMidYMid meet" version="1.0"><defs><clipPath id="c587b9f237"><path d="M 0 12.234375 L 75 12.234375 L 75 62.484375 L 0 62.484375 Z M 0 12.234375 " clip-rule="nonzero"/></clipPath></defs><g clip-path="url(#c587b9f237)"><path fill="#c1ff72" d="M 73.085938 21.472656 C 73.316406 21.707031 73.523438 21.957031 73.707031 22.230469 C 73.890625 22.503906 74.042969 22.792969 74.167969 23.09375 C 74.292969 23.398438 74.390625 23.710938 74.453125 24.03125 C 74.515625 24.355469 74.546875 24.679688 74.546875 25.007812 C 74.546875 25.335938 74.515625 25.660156 74.453125 25.984375 C 74.390625 26.304688 74.292969 26.617188 74.167969 26.921875 C 74.042969 27.222656 73.890625 27.511719 73.707031 27.785156 C 73.523438 28.058594 73.316406 28.308594 73.085938 28.542969 L 41.035156 60.59375 C 40.800781 60.824219 40.550781 61.03125 40.277344 61.214844 C 40.003906 61.398438 39.714844 61.550781 39.414062 61.675781 C 39.109375 61.800781 38.796875 61.898438 38.476562 61.960938 C 38.152344 62.023438 37.828125 62.054688 37.5 62.054688 C 37.171875 62.054688 36.847656 62.023438 36.523438 61.960938 C 36.203125 61.898438 35.890625 61.800781 35.585938 61.675781 C 35.285156 61.550781 34.996094 61.398438 34.722656 61.214844 C 34.449219 61.03125 34.199219 60.824219 33.964844 60.59375 L 1.914062 28.542969 C 1.683594 28.308594 1.476562 28.058594 1.292969 27.785156 C 1.109375 27.511719 0.957031 27.222656 0.832031 26.921875 C 0.707031 26.617188 0.609375 26.304688 0.546875 25.984375 C 0.484375 25.660156 0.453125 25.335938 0.453125 25.007812 C 0.453125 24.679688 0.484375 24.355469 0.546875 24.03125 C 0.609375 23.710938 0.707031 23.398438 0.832031 23.09375 C 0.957031 22.792969 1.109375 22.503906 1.292969 22.230469 C 1.476562 21.957031 1.683594 21.707031 1.914062 21.472656 L 8.980469 14.40625 C 9.214844 14.175781 9.464844 13.96875 9.738281 13.785156 C 10.011719 13.601562 10.300781 13.449219 10.601562 13.324219 C 10.90625 13.199219 11.21875 13.101562 11.539062 13.039062 C 11.863281 12.976562 12.1875 12.945312 12.515625 12.945312 C 12.84375 12.945312 13.167969 12.976562 13.492188 13.039062 C 13.8125 13.101562 14.125 13.199219 14.429688 13.324219 C 14.730469 13.449219 15.019531 13.601562 15.292969 13.785156 C 15.566406 13.96875 15.816406 14.175781 16.050781 14.40625 L 35.734375 34.089844 C 35.96875 34.324219 36.238281 34.507812 36.542969 34.632812 C 36.851562 34.761719 37.167969 34.824219 37.5 34.824219 C 37.832031 34.824219 38.148438 34.761719 38.457031 34.632812 C 38.761719 34.507812 39.03125 34.324219 39.265625 34.089844 L 58.949219 14.40625 C 59.183594 14.175781 59.433594 13.96875 59.707031 13.785156 C 59.980469 13.601562 60.269531 13.449219 60.570312 13.324219 C 60.875 13.199219 61.1875 13.101562 61.507812 13.039062 C 61.832031 12.976562 62.15625 12.945312 62.484375 12.945312 C 62.8125 12.945312 63.136719 12.976562 63.460938 13.039062 C 63.78125 13.101562 64.09375 13.199219 64.398438 13.324219 C 64.699219 13.449219 64.988281 13.601562 65.261719 13.785156 C 65.535156 13.96875 65.785156 14.175781 66.019531 14.40625 Z M 73.085938 21.472656 " fill-opacity="1" fill-rule="nonzero"/></g></svg>