<svg xmlns="http://www.w3.org/2000/svg" xmlns:xlink="http://www.w3.org/1999/xlink" width="100" zoomAndPan="magnify" viewBox="0 0 75 74.999997" height="100" preserveAspectRatio="xMidYMid meet" version="1.0"><defs><clipPath id="1997d2adcf"><path d="M 0 1.773438 L 75 1.773438 L 75 73.023438 L 0 73.023438 Z M 0 1.773438 " clip-rule="nonzero"/></clipPath></defs><path fill="#7a2f00" d="M 41.617188 66.480469 L 32.964844 66.480469 C 32.820312 66.480469 32.679688 66.453125 32.546875 66.394531 C 32.410156 66.339844 32.292969 66.261719 32.191406 66.160156 C 32.085938 66.054688 32.007812 65.9375 31.953125 65.804688 C 31.898438 65.671875 31.871094 65.53125 31.871094 65.386719 L 31.871094 41.140625 C 31.871094 40.996094 31.898438 40.855469 31.953125 40.722656 C 32.007812 40.585938 32.085938 40.46875 32.191406 40.367188 C 32.292969 40.261719 32.410156 40.183594 32.546875 40.128906 C 32.679688 40.074219 32.820312 40.046875 32.964844 40.046875 L 41.617188 40.046875 C 41.761719 40.046875 41.898438 40.074219 42.035156 40.128906 C 42.167969 40.183594 42.285156 40.261719 42.390625 40.367188 C 42.492188 40.46875 42.570312 40.585938 42.625 40.722656 C 42.683594 40.855469 42.710938 40.996094 42.710938 41.140625 L 42.710938 65.386719 C 42.710938 65.53125 42.683594 65.671875 42.625 65.804688 C 42.570312 65.9375 42.492188 66.054688 42.390625 66.160156 C 42.285156 66.261719 42.167969 66.339844 42.035156 66.394531 C 41.898438 66.453125 41.761719 66.480469 41.617188 66.480469 Z M 41.617188 66.480469 " fill-opacity="1" fill-rule="nonzero"/><path fill="#7a2f00" d="M 72.183594 66.480469 L 63.539062 66.480469 C 63.394531 66.480469 63.253906 66.453125 63.121094 66.394531 C 62.988281 66.339844 62.867188 66.261719 62.765625 66.160156 C 62.664062 66.054688 62.585938 65.9375 62.527344 65.804688 C 62.472656 65.671875 62.445312 65.53125 62.445312 65.386719 L 62.445312 26.492188 C 62.445312 26.347656 62.472656 26.207031 62.527344 26.070312 C 62.585938 25.9375 62.664062 25.820312 62.765625 25.71875 C 62.867188 25.613281 62.988281 25.535156 63.121094 25.480469 C 63.253906 25.425781 63.394531 25.398438 63.539062 25.398438 L 72.183594 25.398438 C 72.328125 25.398438 72.46875 25.425781 72.601562 25.480469 C 72.734375 25.535156 72.855469 25.613281 72.957031 25.71875 C 73.058594 25.820312 73.136719 25.9375 73.195312 26.070312 C 73.25 26.207031 73.277344 26.347656 73.277344 26.492188 L 73.277344 65.386719 C 73.277344 65.53125 73.25 65.671875 73.195312 65.804688 C 73.136719 65.9375 73.058594 66.054688 72.957031 66.160156 C 72.855469 66.261719 72.734375 66.339844 72.601562 66.394531 C 72.46875 66.453125 72.328125 66.480469 72.183594 66.480469 Z M 72.183594 66.480469 " fill-opacity="1" fill-rule="nonzero"/><path fill="#7a2f00" d="M 56.894531 66.480469 L 48.253906 66.480469 C 48.109375 66.476562 47.972656 66.449219 47.839844 66.390625 C 47.707031 66.335938 47.589844 66.253906 47.488281 66.152344 C 47.390625 66.050781 47.3125 65.933594 47.257812 65.800781 C 47.203125 65.667969 47.175781 65.527344 47.175781 65.386719 L 47.175781 49.433594 C 47.175781 49.285156 47.203125 49.148438 47.257812 49.011719 C 47.3125 48.878906 47.394531 48.761719 47.496094 48.65625 C 47.597656 48.554688 47.71875 48.476562 47.851562 48.421875 C 47.984375 48.363281 48.125 48.335938 48.269531 48.335938 L 56.894531 48.335938 C 57.039062 48.335938 57.179688 48.363281 57.3125 48.421875 C 57.449219 48.476562 57.566406 48.554688 57.667969 48.65625 C 57.769531 48.761719 57.851562 48.878906 57.90625 49.011719 C 57.960938 49.148438 57.988281 49.285156 57.988281 49.433594 L 57.988281 65.386719 C 57.988281 65.53125 57.960938 65.671875 57.90625 65.804688 C 57.851562 65.9375 57.769531 66.054688 57.667969 66.160156 C 57.566406 66.261719 57.449219 66.339844 57.3125 66.394531 C 57.179688 66.453125 57.039062 66.480469 56.894531 66.480469 Z M 56.894531 66.480469 " fill-opacity="1" fill-rule="nonzero"/><path fill="#7a2f00" d="M 26.328125 66.480469 L 17.675781 66.480469 C 17.53125 66.480469 17.390625 66.453125 17.257812 66.394531 C 17.125 66.339844 17.003906 66.261719 16.902344 66.160156 C 16.800781 66.054688 16.71875 65.9375 16.664062 65.804688 C 16.609375 65.671875 16.582031 65.53125 16.582031 65.386719 L 16.582031 59.070312 C 16.582031 58.925781 16.609375 58.789062 16.664062 58.652344 C 16.71875 58.519531 16.800781 58.402344 16.902344 58.296875 C 17.003906 58.195312 17.125 58.117188 17.257812 58.0625 C 17.390625 58.003906 17.53125 57.976562 17.675781 57.976562 L 26.328125 57.976562 C 26.472656 57.976562 26.613281 58.003906 26.746094 58.0625 C 26.878906 58.117188 27 58.195312 27.101562 58.296875 C 27.203125 58.402344 27.28125 58.519531 27.339844 58.652344 C 27.394531 58.789062 27.421875 58.925781 27.421875 59.070312 L 27.421875 65.386719 C 27.421875 65.53125 27.394531 65.671875 27.339844 65.804688 C 27.28125 65.9375 27.203125 66.054688 27.101562 66.160156 C 27 66.261719 26.878906 66.339844 26.746094 66.394531 C 26.613281 66.453125 26.472656 66.480469 26.328125 66.480469 Z M 26.328125 66.480469 " fill-opacity="1" fill-rule="nonzero"/><path fill="#7a2f00" d="M 63.375 19.976562 C 63.230469 19.976562 63.089844 19.949219 62.957031 19.894531 C 62.820312 19.835938 62.703125 19.757812 62.601562 19.65625 C 62.496094 19.554688 62.417969 19.433594 62.363281 19.300781 C 62.308594 19.167969 62.28125 19.027344 62.28125 18.882812 L 62.28125 8.148438 L 51.554688 8.148438 C 51.410156 8.148438 51.269531 8.121094 51.132812 8.0625 C 51 8.007812 50.882812 7.929688 50.78125 7.828125 C 50.675781 7.722656 50.597656 7.605469 50.542969 7.472656 C 50.488281 7.335938 50.457031 7.199219 50.457031 7.050781 C 50.457031 6.90625 50.488281 6.769531 50.542969 6.632812 C 50.597656 6.5 50.675781 6.382812 50.78125 6.277344 C 50.882812 6.175781 51 6.097656 51.132812 6.042969 C 51.269531 5.984375 51.410156 5.957031 51.554688 5.957031 L 63.375 5.957031 C 63.519531 5.957031 63.660156 5.984375 63.792969 6.042969 C 63.925781 6.097656 64.046875 6.175781 64.148438 6.277344 C 64.25 6.382812 64.328125 6.5 64.386719 6.632812 C 64.441406 6.769531 64.46875 6.90625 64.46875 7.050781 L 64.46875 18.882812 C 64.46875 19.027344 64.441406 19.167969 64.386719 19.300781 C 64.328125 19.433594 64.25 19.554688 64.148438 19.65625 C 64.046875 19.757812 63.925781 19.835938 63.792969 19.894531 C 63.660156 19.949219 63.519531 19.976562 63.375 19.976562 Z M 63.375 19.976562 " fill-opacity="1" fill-rule="nonzero"/><path fill="#7a2f00" d="M 12.84375 40.894531 C 12.625 40.894531 12.425781 40.835938 12.242188 40.71875 C 12.058594 40.597656 11.925781 40.4375 11.835938 40.238281 C 11.75 40.039062 11.722656 39.832031 11.761719 39.617188 C 11.796875 39.402344 11.890625 39.214844 12.039062 39.054688 L 27.308594 22.578125 C 27.515625 22.316406 27.789062 22.199219 28.121094 22.226562 C 28.449219 22.234375 28.71875 22.359375 28.9375 22.601562 L 37.324219 32.234375 L 61.839844 6.84375 C 61.941406 6.730469 62.058594 6.640625 62.191406 6.574219 C 62.328125 6.511719 62.472656 6.472656 62.621094 6.46875 C 62.773438 6.460938 62.917969 6.484375 63.058594 6.539062 C 63.199219 6.59375 63.320312 6.671875 63.429688 6.777344 C 63.539062 6.882812 63.621094 7.003906 63.675781 7.140625 C 63.734375 7.28125 63.761719 7.425781 63.761719 7.574219 C 63.757812 7.726562 63.726562 7.871094 63.667969 8.007812 C 63.605469 8.144531 63.519531 8.265625 63.410156 8.367188 L 38.085938 34.632812 C 37.859375 34.855469 37.589844 34.964844 37.273438 34.96875 C 36.949219 34.960938 36.679688 34.835938 36.464844 34.589844 L 28.097656 24.957031 L 13.648438 40.542969 C 13.429688 40.777344 13.164062 40.894531 12.84375 40.894531 Z M 12.84375 40.894531 " fill-opacity="1" fill-rule="nonzero"/><path fill="#7a2f00" d="M 7.160156 66.734375 L 1.199219 66.734375 C 1.050781 66.734375 0.914062 66.707031 0.777344 66.652344 C 0.644531 66.59375 0.527344 66.515625 0.421875 66.414062 C 0.320312 66.308594 0.242188 66.191406 0.1875 66.058594 C 0.128906 65.925781 0.101562 65.785156 0.101562 65.640625 C 0.101562 65.492188 0.128906 65.355469 0.1875 65.21875 C 0.242188 65.085938 0.320312 64.96875 0.421875 64.867188 C 0.527344 64.761719 0.644531 64.683594 0.777344 64.628906 C 0.914062 64.574219 1.050781 64.542969 1.199219 64.542969 L 7.160156 64.542969 C 7.304688 64.542969 7.445312 64.574219 7.578125 64.628906 C 7.714844 64.683594 7.832031 64.761719 7.933594 64.867188 C 8.035156 64.96875 8.117188 65.085938 8.171875 65.21875 C 8.226562 65.355469 8.253906 65.492188 8.253906 65.640625 C 8.253906 65.785156 8.226562 65.925781 8.171875 66.058594 C 8.117188 66.191406 8.035156 66.308594 7.933594 66.414062 C 7.832031 66.515625 7.714844 66.59375 7.578125 66.652344 C 7.445312 66.707031 7.304688 66.734375 7.160156 66.734375 Z M 7.160156 66.734375 " fill-opacity="1" fill-rule="nonzero"/><path fill="#7a2f00" d="M 7.160156 55.097656 L 1.199219 55.097656 C 1.050781 55.097656 0.914062 55.070312 0.777344 55.011719 C 0.644531 54.957031 0.527344 54.878906 0.421875 54.777344 C 0.320312 54.671875 0.242188 54.554688 0.1875 54.421875 C 0.128906 54.289062 0.101562 54.148438 0.101562 54.003906 C 0.101562 53.855469 0.128906 53.71875 0.1875 53.582031 C 0.242188 53.449219 0.320312 53.332031 0.421875 53.230469 C 0.527344 53.125 0.644531 53.046875 0.777344 52.992188 C 0.914062 52.9375 1.050781 52.90625 1.199219 52.90625 L 7.160156 52.90625 C 7.304688 52.90625 7.445312 52.9375 7.578125 52.992188 C 7.714844 53.046875 7.832031 53.125 7.933594 53.230469 C 8.035156 53.332031 8.117188 53.449219 8.171875 53.582031 C 8.226562 53.71875 8.253906 53.855469 8.253906 54.003906 C 8.253906 54.148438 8.226562 54.289062 8.171875 54.421875 C 8.117188 54.554688 8.035156 54.671875 7.933594 54.777344 C 7.832031 54.878906 7.714844 54.957031 7.578125 55.011719 C 7.445312 55.070312 7.304688 55.097656 7.160156 55.097656 Z M 7.160156 55.097656 " fill-opacity="1" fill-rule="nonzero"/><path fill="#7a2f00" d="M 7.160156 43.40625 L 1.199219 43.40625 C 1.050781 43.40625 0.914062 43.378906 0.777344 43.324219 C 0.644531 43.269531 0.527344 43.191406 0.421875 43.085938 C 0.320312 42.984375 0.242188 42.867188 0.1875 42.730469 C 0.128906 42.597656 0.101562 42.457031 0.101562 42.3125 C 0.101562 42.167969 0.128906 42.027344 0.1875 41.894531 C 0.242188 41.761719 0.320312 41.640625 0.421875 41.539062 C 0.527344 41.4375 0.644531 41.359375 0.777344 41.300781 C 0.914062 41.246094 1.050781 41.21875 1.199219 41.21875 L 7.160156 41.21875 C 7.304688 41.21875 7.445312 41.246094 7.578125 41.300781 C 7.714844 41.359375 7.832031 41.4375 7.933594 41.539062 C 8.035156 41.640625 8.117188 41.761719 8.171875 41.894531 C 8.226562 42.027344 8.253906 42.167969 8.253906 42.3125 C 8.253906 42.457031 8.226562 42.597656 8.171875 42.730469 C 8.117188 42.867188 8.035156 42.984375 7.933594 43.085938 C 7.832031 43.191406 7.714844 43.269531 7.578125 43.324219 C 7.445312 43.378906 7.304688 43.40625 7.160156 43.40625 Z M 7.160156 43.40625 " fill-opacity="1" fill-rule="nonzero"/><path fill="#7a2f00" d="M 7.160156 31.734375 L 1.199219 31.734375 C 1.050781 31.734375 0.914062 31.707031 0.777344 31.652344 C 0.644531 31.597656 0.527344 31.519531 0.421875 31.414062 C 0.320312 31.3125 0.242188 31.195312 0.1875 31.058594 C 0.128906 30.925781 0.101562 30.785156 0.101562 30.640625 C 0.101562 30.496094 0.128906 30.355469 0.1875 30.222656 C 0.242188 30.089844 0.320312 29.96875 0.421875 29.867188 C 0.527344 29.765625 0.644531 29.6875 0.777344 29.628906 C 0.914062 29.574219 1.050781 29.546875 1.199219 29.546875 L 7.160156 29.546875 C 7.304688 29.546875 7.445312 29.574219 7.578125 29.628906 C 7.714844 29.6875 7.832031 29.765625 7.933594 29.867188 C 8.035156 29.96875 8.117188 30.089844 8.171875 30.222656 C 8.226562 30.355469 8.253906 30.496094 8.253906 30.640625 C 8.253906 30.785156 8.226562 30.925781 8.171875 31.058594 C 8.117188 31.195312 8.035156 31.3125 7.933594 31.414062 C 7.832031 31.519531 7.714844 31.597656 7.578125 31.652344 C 7.445312 31.707031 7.304688 31.734375 7.160156 31.734375 Z M 7.160156 31.734375 " fill-opacity="1" fill-rule="nonzero"/><path fill="#7a2f00" d="M 7.160156 20.074219 L 1.199219 20.074219 C 1.050781 20.074219 0.914062 20.046875 0.777344 19.988281 C 0.644531 19.933594 0.527344 19.855469 0.421875 19.753906 C 0.320312 19.648438 0.242188 19.53125 0.1875 19.398438 C 0.128906 19.261719 0.101562 19.125 0.101562 18.976562 C 0.101562 18.832031 0.128906 18.695312 0.1875 18.558594 C 0.242188 18.425781 0.320312 18.308594 0.421875 18.203125 C 0.527344 18.101562 0.644531 18.023438 0.777344 17.96875 C 0.914062 17.910156 1.050781 17.882812 1.199219 17.882812 L 7.160156 17.882812 C 7.304688 17.882812 7.445312 17.910156 7.578125 17.96875 C 7.714844 18.023438 7.832031 18.101562 7.933594 18.203125 C 8.035156 18.308594 8.117188 18.425781 8.171875 18.558594 C 8.226562 18.695312 8.253906 18.832031 8.253906 18.976562 C 8.253906 19.125 8.226562 19.261719 8.171875 19.398438 C 8.117188 19.53125 8.035156 19.648438 7.933594 19.753906 C 7.832031 19.855469 7.714844 19.933594 7.578125 19.988281 C 7.445312 20.046875 7.304688 20.074219 7.160156 20.074219 Z M 7.160156 20.074219 " fill-opacity="1" fill-rule="nonzero"/><path fill="#7a2f00" d="M 7.160156 8.410156 L 1.199219 8.410156 C 1.050781 8.410156 0.914062 8.382812 0.777344 8.328125 C 0.644531 8.269531 0.527344 8.191406 0.421875 8.089844 C 0.320312 7.988281 0.242188 7.867188 0.1875 7.734375 C 0.128906 7.601562 0.101562 7.460938 0.101562 7.316406 C 0.101562 7.171875 0.128906 7.03125 0.1875 6.894531 C 0.242188 6.761719 0.320312 6.644531 0.421875 6.542969 C 0.527344 6.4375 0.644531 6.359375 0.777344 6.304688 C 0.914062 6.25 1.050781 6.222656 1.199219 6.222656 L 7.160156 6.222656 C 7.304688 6.222656 7.445312 6.25 7.578125 6.304688 C 7.714844 6.359375 7.832031 6.4375 7.933594 6.542969 C 8.035156 6.644531 8.117188 6.761719 8.171875 6.894531 C 8.226562 7.03125 8.253906 7.171875 8.253906 7.316406 C 8.253906 7.460938 8.226562 7.601562 8.171875 7.734375 C 8.117188 7.867188 8.035156 7.988281 7.933594 8.089844 C 7.832031 8.191406 7.714844 8.269531 7.578125 8.328125 C 7.445312 8.382812 7.304688 8.410156 7.160156 8.410156 Z M 7.160156 8.410156 " fill-opacity="1" fill-rule="nonzero"/><g clip-path="url(#1997d2adcf)"><path fill="#7a2f00" d="M 73.800781 73.203125 L 1.199219 73.203125 C 1.050781 73.203125 0.914062 73.175781 0.777344 73.121094 C 0.644531 73.066406 0.527344 72.988281 0.421875 72.882812 C 0.320312 72.78125 0.242188 72.664062 0.1875 72.527344 C 0.128906 72.394531 0.101562 72.253906 0.101562 72.109375 L 0.101562 2.882812 C 0.101562 2.738281 0.128906 2.601562 0.1875 2.464844 C 0.242188 2.332031 0.320312 2.214844 0.421875 2.109375 C 0.527344 2.007812 0.644531 1.929688 0.777344 1.875 C 0.914062 1.816406 1.050781 1.789062 1.199219 1.789062 C 1.34375 1.789062 1.480469 1.816406 1.617188 1.875 C 1.75 1.929688 1.867188 2.007812 1.972656 2.109375 C 2.074219 2.214844 2.152344 2.332031 2.207031 2.464844 C 2.265625 2.601562 2.292969 2.738281 2.292969 2.882812 L 2.292969 71.015625 L 73.800781 71.015625 C 73.949219 71.015625 74.085938 71.042969 74.222656 71.097656 C 74.355469 71.152344 74.472656 71.234375 74.578125 71.335938 C 74.679688 71.4375 74.757812 71.558594 74.8125 71.691406 C 74.871094 71.824219 74.898438 71.964844 74.898438 72.109375 C 74.898438 72.253906 74.871094 72.394531 74.8125 72.527344 C 74.757812 72.664062 74.679688 72.78125 74.578125 72.882812 C 74.472656 72.988281 74.355469 73.066406 74.222656 73.121094 C 74.085938 73.175781 73.949219 73.203125 73.800781 73.203125 Z M 73.800781 73.203125 " fill-opacity="1" fill-rule="nonzero"/></g></svg>