<svg xmlns="http://www.w3.org/2000/svg" xmlns:xlink="http://www.w3.org/1999/xlink" width="100" zoomAndPan="magnify" viewBox="0 0 75 74.999997" height="100" preserveAspectRatio="xMidYMid meet" version="1.0"><defs><clipPath id="6b52aef46a"><path d="M 0 0.464844 L 75 0.464844 L 75 74 L 0 74 Z M 0 0.464844 " clip-rule="nonzero"/></clipPath></defs><g clip-path="url(#6b52aef46a)"><path fill="#7a6200" d="M 50.566406 39.347656 C 50.566406 32.144531 44.703125 26.28125 37.5 26.28125 C 30.296875 26.28125 24.433594 32.144531 24.433594 39.347656 C 24.433594 46.550781 30.296875 52.410156 37.5 52.410156 C 44.703125 52.410156 50.566406 46.550781 50.566406 39.347656 M 57.769531 39.347656 C 57.769531 44.761719 55.660156 49.851562 51.832031 53.679688 C 48.003906 57.507812 42.914062 59.617188 37.5 59.617188 C 32.085938 59.617188 26.996094 57.507812 23.167969 53.679688 C 19.339844 49.851562 17.230469 44.761719 17.230469 39.347656 C 17.230469 33.933594 19.339844 28.84375 23.167969 25.015625 C 26.996094 21.1875 32.085938 19.078125 37.5 19.078125 C 42.914062 19.078125 48.003906 21.1875 51.832031 25.015625 C 55.660156 28.84375 57.769531 33.933594 57.769531 39.347656 M 37.535156 0.46875 L 35.902344 4.113281 L 31.9375 3.660156 L 34.277344 6.894531 L 31.902344 10.105469 L 35.875 9.691406 L 37.464844 13.355469 L 39.097656 9.710938 L 43.0625 10.160156 L 40.722656 6.929688 L 43.097656 3.71875 L 39.125 4.128906 L 37.535156 0.46875 M 51.039062 4.324219 L 49.410156 7.96875 L 45.445312 7.515625 L 47.785156 10.75 L 45.410156 13.960938 L 49.382812 13.550781 L 50.972656 17.210938 L 52.601562 13.566406 L 56.570312 14.015625 L 54.230469 10.785156 L 56.601562 7.574219 L 52.632812 7.984375 L 51.039062 4.324219 M 25.058594 4.324219 L 23.429688 7.96875 L 19.464844 7.515625 L 21.804688 10.75 L 19.429688 13.960938 L 23.402344 13.550781 L 24.992188 17.210938 L 26.621094 13.566406 L 30.589844 14.015625 L 28.246094 10.785156 L 30.621094 7.574219 L 26.652344 7.984375 L 25.058594 4.324219 M 37.464844 68.058594 C 36.667969 68.050781 36.023438 68.65625 36 69.4375 C 35.980469 70.246094 36.675781 70.929688 37.492188 70.910156 C 38.265625 70.886719 38.902344 70.234375 38.898438 69.460938 C 38.894531 68.675781 38.269531 68.066406 37.464844 68.058594 M 66.5625 51.03125 C 69.933594 51.832031 73.023438 49.546875 74.980469 44.699219 C 69.6875 45.0625 66.164062 47.746094 66.5625 51.03125 M 15.136719 61.761719 C 14.019531 58.234375 10.105469 57.105469 5.273438 58.382812 C 8.242188 62.3125 12.371094 63.671875 15.136719 61.761719 M 57.757812 62.023438 C 60.566406 59.851562 60.414062 55.550781 57.761719 51.554688 C 54.949219 55.800781 54.785156 59.75 57.757812 62.023438 M 8.453125 19.097656 C 5.863281 23.003906 5.496094 27.214844 8.265625 29.574219 C 11.074219 27.574219 11.449219 23.5625 8.453125 19.097656 M 16.730469 24.945312 C 11.921875 26.023438 8.941406 28.988281 9.332031 32.308594 C 12.785156 33.046875 16.695312 29.160156 16.730469 24.945312 M 10.65625 64.429688 C 14.3125 67.636719 18.597656 68.199219 21.046875 65.796875 C 19.164062 62.613281 14.246094 61.964844 10.65625 64.429688 M 62.953125 57.242188 C 65.183594 54.792969 64.664062 50.808594 61.050781 46.96875 C 58.890625 51.867188 59.859375 55.734375 62.953125 57.242188 M 68.882812 37.566406 C 71.949219 35.726562 72.640625 32.109375 70.828125 27.179688 C 67.222656 30.664062 66.40625 35.175781 68.882812 37.566406 M 65.570312 32.238281 C 66.023438 28.886719 62.945312 25.890625 58.070312 24.910156 C 59.332031 30.175781 62.28125 33.023438 65.570312 32.238281 M 66.398438 19.078125 C 63.6875 23.320312 63.699219 27.40625 66.636719 29.460938 C 69.324219 27.402344 69.195312 21.898438 66.398438 19.078125 M 13.816406 47.015625 C 10.449219 50.636719 9.730469 54.566406 11.972656 57.347656 C 15.269531 55.480469 16.140625 50.429688 13.816406 47.015625 M 12.332031 39.628906 C 8.359375 43.078125 7.367188 46.890625 9.300781 49.714844 C 13.035156 48.085938 13.765625 44.039062 12.332031 39.628906 M 0.0195312 44.832031 C 1.542969 49.144531 5.070312 52.152344 8.476562 51.035156 C 8.277344 47.652344 5.628906 45.128906 0.0195312 44.832031 M 27.636719 68.265625 C 25.082031 65.691406 21.136719 66.289062 17.28125 69.75 C 21.601562 71.757812 25.828125 71.414062 27.636719 68.265625 M 41.066406 67.96875 C 44.433594 68.59375 47.535156 65.878906 48.996094 61.09375 C 43.683594 61.835938 40.347656 64.761719 41.066406 67.96875 M 1.34375 51.617188 C 3.542969 55.9375 7.175781 58.097656 10.433594 56.769531 C 9.867188 53.082031 6.273438 51.160156 1.34375 51.617188 M 56.804688 17.210938 C 57.320312 22.046875 59.65625 25.425781 63.429688 25.230469 C 64.234375 21.921875 60.675781 17.613281 56.804688 17.210938 M 64.542969 56.675781 C 67.429688 58.046875 71.203125 56.144531 73.613281 51.527344 C 68.605469 51.121094 64.980469 53.027344 64.542969 56.675781 M 54.085938 55.828125 C 49.785156 59.199219 48.871094 62.714844 50.703125 65.742188 C 54.328125 64.527344 55.28125 59.90625 54.085938 55.828125 M 64.320312 64.296875 C 59.585938 62.097656 55.832031 62.5 53.863281 65.75 C 56.464844 68.128906 60.398438 67.589844 64.320312 64.296875 M 25.953125 61.246094 C 27.375 65.902344 30.527344 68.742188 33.941406 67.976562 C 34.039062 64.292969 30.355469 61.21875 25.953125 61.246094 M 69.671875 58.277344 C 64.867188 56.914062 61.105469 58.183594 59.757812 61.6875 C 62.84375 63.527344 67.5625 61.882812 69.671875 58.277344 M 20.773438 55.941406 C 19.558594 60.648438 20.8125 64.347656 24.1875 65.867188 C 26.164062 62.636719 24.492188 57.855469 20.773438 55.941406 M 50.222656 72.78125 C 46.664062 68.917969 42.78125 68.148438 40.035156 70.414062 C 41.492188 73.640625 45.6875 74.441406 50.222656 72.78125 M 6.15625 37.621094 C 8.417969 34.808594 7.890625 31.285156 4.121094 27.277344 C 2.480469 31.59375 2.734375 36.023438 6.15625 37.621094 M 11.558594 25.355469 C 14.765625 25.363281 17.460938 23.113281 18.136719 17.15625 C 13.335938 18.746094 10.550781 22.25 11.558594 25.355469 M 17.125 51.625 C 14.480469 55.820312 14.386719 59.996094 17.191406 62.070312 C 20.101562 59.84375 20.050781 55.867188 17.125 51.625 M 57.640625 69.632812 C 53.851562 66.195312 50.054688 65.652344 47.261719 68.199219 C 49.21875 71.238281 54.191406 71.898438 57.640625 69.632812 M 24.707031 72.914062 C 29.511719 74.535156 33.117188 73.695312 34.929688 70.496094 C 31.921875 68.234375 26.875 69.460938 24.707031 72.914062 M 73.984375 36.199219 C 69.007812 38.515625 67.304688 41.871094 68.507812 45.210938 C 72.332031 44.621094 74.0625 40.757812 73.984375 36.199219 M 67.476562 41.566406 C 68.800781 38.769531 67.070312 34.929688 62.183594 32.441406 C 61.953125 37.730469 63.855469 40.976562 67.476562 41.566406 M 7.5 41.632812 C 11.386719 40.972656 12.894531 37.421875 12.710938 32.484375 C 8.980469 34.460938 5.796875 38.042969 7.5 41.632812 M 65.707031 49.542969 C 67.652344 46.566406 66.300781 42.78125 62.535156 39.507812 C 61.0625 44.585938 62.394531 48.707031 65.707031 49.542969 M 0.929688 36.28125 C 5.566406 38.359375 7.765625 41.855469 6.398438 45.21875 C 2.753906 44.878906 0.851562 40.925781 0.929688 36.28125 " fill-opacity="1" fill-rule="nonzero"/></g><path fill="#d3a511" d="M 55.539062 39.347656 C 55.539062 49.335938 47.441406 57.4375 37.449219 57.4375 C 34.886719 57.4375 32.449219 56.90625 30.238281 55.941406 C 23.835938 53.15625 19.359375 46.773438 19.359375 39.347656 C 19.359375 29.355469 27.457031 21.257812 37.449219 21.257812 C 37.921875 21.257812 38.390625 21.273438 38.855469 21.308594 C 48.191406 22.027344 55.539062 29.828125 55.539062 39.347656 " fill-opacity="1" fill-rule="nonzero"/><path fill="#7a6200" d="M 49.488281 25.785156 C 49.316406 25.652344 49.136719 25.519531 48.960938 25.390625 C 46.171875 23.085938 42.679688 21.605469 38.855469 21.308594 C 38.390625 21.273438 37.921875 21.257812 37.449219 21.257812 C 37.195312 21.257812 36.941406 21.261719 36.6875 21.273438 C 36.964844 21.257812 37.238281 21.253906 37.515625 21.253906 C 41.777344 21.253906 46.054688 22.75 49.488281 25.785156 " fill-opacity="1" fill-rule="nonzero"/><path fill="#7a6200" d="M 32.777344 56.8125 C 30.089844 56.085938 27.535156 54.730469 25.335938 52.730469 C 17.945312 46.007812 17.402344 34.566406 24.125 27.171875 C 27.496094 23.46875 32.050781 21.484375 36.6875 21.273438 C 36.941406 21.261719 37.195312 21.257812 37.449219 21.257812 C 37.921875 21.257812 38.390625 21.273438 38.855469 21.308594 C 42.679688 21.605469 46.171875 23.085938 48.960938 25.390625 C 45.84375 23.144531 42.1875 22.035156 38.539062 22.035156 C 33.683594 22.035156 28.84375 24.003906 25.316406 27.878906 C 18.679688 35.175781 19.214844 46.476562 26.515625 53.113281 C 28.386719 54.816406 30.523438 56.046875 32.777344 56.8125 " fill-opacity="1" fill-rule="nonzero"/></svg>