<svg xmlns="http://www.w3.org/2000/svg" xmlns:xlink="http://www.w3.org/1999/xlink" width="100" zoomAndPan="magnify" viewBox="0 0 75 74.999997" height="100" preserveAspectRatio="xMidYMid meet" version="1.0"><defs><clipPath id="a732c20c81"><path d="M 0 1.5 L 75 1.5 L 75 73.5 L 0 73.5 Z M 0 1.5 " clip-rule="nonzero"/></clipPath></defs><g clip-path="url(#a732c20c81)"><path fill="#0025cc" d="M 71.378906 54.074219 C 69.089844 51.558594 65.523438 48.941406 61.230469 46.8125 L 61.171875 46.785156 C 60.753906 46.578125 60.339844 46.382812 59.921875 46.191406 L 59.921875 9.234375 C 59.921875 6.890625 57.75 4.875 54.234375 3.507812 C 51.054688 2.265625 46.691406 1.5 41.894531 1.5 C 37.097656 1.5 32.730469 2.265625 29.550781 3.503906 C 26.035156 4.871094 23.863281 6.890625 23.863281 9.230469 L 23.863281 24.957031 C 22.042969 24.703125 20.085938 24.566406 18.054688 24.566406 C 13.257812 24.566406 8.890625 25.332031 5.710938 26.570312 C 2.195312 27.9375 0.0234375 29.957031 0.0234375 32.296875 L 0.0234375 65.773438 C 0.0234375 68.113281 2.195312 70.132812 5.710938 71.5 C 8.894531 72.738281 13.257812 73.503906 18.054688 73.503906 C 22.851562 73.503906 27.214844 72.738281 30.398438 71.5 C 33.40625 70.328125 35.429688 68.679688 35.949219 66.761719 C 36.6875 66.867188 37.445312 66.957031 38.222656 67.019531 C 39.410156 67.121094 40.640625 67.171875 41.894531 67.171875 C 43.015625 67.171875 44.128906 67.128906 45.214844 67.046875 C 46.15625 66.976562 47.085938 66.867188 48 66.734375 C 48.832031 67.21875 49.699219 67.691406 50.601562 68.140625 L 50.660156 68.167969 C 54.949219 70.289062 59.191406 71.535156 62.585938 71.835938 C 66.335938 72.167969 69.175781 71.324219 70.214844 69.226562 L 73.925781 61.726562 C 74.96875 59.625 73.917969 56.855469 71.378906 54.074219 Z M 60.179688 48.890625 C 64.214844 50.890625 67.542969 53.324219 69.660156 55.640625 C 71.535156 57.699219 72.410156 59.542969 71.84375 60.691406 L 71.839844 60.695312 C 71.269531 61.839844 69.269531 62.261719 66.5 62.015625 C 63.378906 61.738281 59.421875 60.566406 55.375 58.558594 C 51.335938 56.558594 48.007812 54.125 45.890625 51.804688 C 44.015625 49.746094 43.140625 47.902344 43.707031 46.753906 C 44.277344 45.605469 46.277344 45.179688 49.046875 45.429688 C 51.679688 45.664062 54.902344 46.535156 58.273438 48 C 58.289062 48.011719 58.308594 48.019531 58.328125 48.023438 C 58.9375 48.292969 59.554688 48.578125 60.171875 48.882812 Z M 37.902344 53.222656 C 37.457031 54.128906 37.394531 55.15625 37.675781 56.253906 C 37.539062 56.238281 37.402344 56.226562 37.269531 56.214844 C 36.871094 56.167969 36.476562 56.113281 36.085938 56.058594 L 36.085938 50.042969 C 36.65625 50.121094 37.246094 50.191406 37.859375 50.25 C 38.339844 50.292969 38.828125 50.328125 39.324219 50.359375 Z M 57.589844 42.703125 C 57.589844 43.050781 57.460938 43.40625 57.214844 43.757812 C 56.984375 44.085938 56.664062 44.40625 56.261719 44.71875 C 53.730469 43.839844 51.328125 43.296875 49.246094 43.113281 C 45.496094 42.78125 42.65625 43.625 41.617188 45.722656 L 40.453125 48.078125 C 39.640625 48.050781 38.84375 48 38.070312 47.929688 C 37.40625 47.867188 36.742188 47.785156 36.085938 47.6875 L 36.085938 41.675781 C 36.777344 41.773438 37.492188 41.855469 38.222656 41.914062 C 39.410156 42.015625 40.640625 42.066406 41.894531 42.066406 C 46.691406 42.066406 51.054688 41.300781 54.238281 40.0625 C 55.558594 39.550781 56.691406 38.941406 57.589844 38.261719 Z M 57.589844 34.335938 C 57.589844 35.621094 55.988281 36.886719 53.398438 37.894531 C 50.476562 39.03125 46.410156 39.734375 41.894531 39.734375 C 40.691406 39.734375 39.53125 39.683594 38.414062 39.589844 C 37.613281 39.523438 36.835938 39.433594 36.085938 39.324219 L 36.085938 33.3125 C 36.777344 33.40625 37.484375 33.488281 38.210938 33.550781 C 39.398438 33.648438 40.632812 33.703125 41.890625 33.703125 C 46.6875 33.703125 51.054688 32.9375 54.234375 31.699219 C 55.558594 31.183594 56.6875 30.578125 57.589844 29.898438 Z M 57.589844 17.601562 C 57.589844 18.882812 55.988281 20.148438 53.398438 21.15625 C 50.476562 22.292969 46.410156 22.996094 41.894531 22.996094 C 37.375 22.996094 33.308594 22.292969 30.390625 21.15625 C 27.800781 20.148438 26.195312 18.882812 26.195312 17.601562 L 26.195312 13.15625 C 27.09375 13.839844 28.226562 14.445312 29.550781 14.960938 C 32.730469 16.199219 37.097656 16.964844 41.894531 16.964844 C 46.691406 16.964844 51.054688 16.195312 54.238281 14.960938 C 55.558594 14.445312 56.691406 13.839844 57.589844 13.15625 Z M 26.152344 25.351562 C 26.089844 24.171875 26.101562 22.816406 26.128906 21.472656 C 27.039062 22.175781 28.195312 22.800781 29.550781 23.328125 C 32.730469 24.566406 37.097656 25.332031 41.894531 25.332031 C 46.691406 25.332031 51.054688 24.566406 54.238281 23.328125 C 55.558594 22.8125 56.691406 22.207031 57.589844 21.527344 L 57.589844 25.96875 C 57.589844 27.253906 55.988281 28.519531 53.398438 29.527344 C 50.476562 30.664062 46.410156 31.367188 41.894531 31.367188 C 40.691406 31.367188 39.519531 31.316406 38.402344 31.222656 C 37.511719 31.148438 36.652344 31.042969 35.824219 30.914062 C 35.144531 29.164062 33.199219 27.664062 30.398438 26.570312 C 29.148438 26.085938 27.71875 25.671875 26.152344 25.351562 Z M 33.75 40.667969 C 33.75 41.949219 32.148438 43.214844 29.558594 44.222656 C 26.636719 45.359375 22.570312 46.066406 18.054688 46.066406 C 13.535156 46.066406 9.46875 45.359375 6.550781 44.222656 C 3.960938 43.214844 2.355469 41.949219 2.355469 40.667969 L 2.355469 36.222656 C 3.253906 36.90625 4.386719 37.511719 5.710938 38.027344 C 8.890625 39.265625 13.257812 40.03125 18.054688 40.03125 C 22.847656 40.03125 27.214844 39.261719 30.398438 38.027344 C 31.71875 37.511719 32.851562 36.902344 33.75 36.222656 Z M 5.710938 46.394531 C 8.894531 47.632812 13.257812 48.398438 18.054688 48.398438 C 22.851562 48.398438 27.214844 47.632812 30.398438 46.394531 C 31.722656 45.878906 32.851562 45.273438 33.75 44.59375 L 33.75 49.035156 C 33.75 50.320312 32.148438 51.585938 29.558594 52.59375 C 26.640625 53.730469 22.574219 54.433594 18.054688 54.433594 C 13.539062 54.433594 9.472656 53.730469 6.550781 52.59375 C 3.960938 51.585938 2.359375 50.320312 2.359375 49.035156 L 2.359375 44.59375 C 3.253906 45.273438 4.386719 45.878906 5.710938 46.394531 Z M 2.359375 57.402344 L 2.359375 52.957031 C 3.257812 53.640625 4.386719 54.246094 5.710938 54.761719 C 8.894531 56 13.257812 56.765625 18.054688 56.765625 C 22.851562 56.765625 27.214844 55.996094 30.398438 54.761719 C 31.722656 54.246094 32.851562 53.640625 33.75 52.957031 L 33.75 57.402344 C 33.75 58.6875 32.148438 59.949219 29.558594 60.960938 C 26.640625 62.097656 22.574219 62.800781 18.054688 62.800781 C 13.539062 62.800781 9.472656 62.097656 6.550781 60.960938 C 3.960938 59.949219 2.359375 58.6875 2.359375 57.402344 Z M 30.386719 5.675781 C 33.308594 4.539062 37.375 3.835938 41.890625 3.835938 C 46.410156 3.835938 50.476562 4.539062 53.394531 5.675781 C 55.984375 6.683594 57.589844 7.949219 57.589844 9.234375 C 57.589844 10.515625 55.988281 11.78125 53.394531 12.789062 C 50.476562 13.925781 46.410156 14.632812 41.890625 14.632812 C 37.375 14.632812 33.308594 13.925781 30.386719 12.789062 C 27.796875 11.78125 26.195312 10.515625 26.195312 9.234375 C 26.195312 7.949219 27.796875 6.683594 30.386719 5.675781 Z M 6.550781 28.742188 C 9.46875 27.605469 13.535156 26.902344 18.054688 26.902344 C 20.460938 26.902344 22.738281 27.101562 24.785156 27.460938 C 24.796875 27.464844 24.808594 27.464844 24.816406 27.46875 C 26.597656 27.78125 28.203125 28.214844 29.558594 28.742188 C 32.148438 29.75 33.75 31.015625 33.75 32.296875 C 33.75 33.582031 32.148438 34.847656 29.558594 35.855469 C 26.640625 36.992188 22.574219 37.695312 18.054688 37.695312 C 13.539062 37.695312 9.472656 36.992188 6.550781 35.855469 C 3.960938 34.847656 2.359375 33.582031 2.359375 32.296875 C 2.359375 31.015625 3.960938 29.75 6.550781 28.742188 Z M 29.558594 69.328125 C 26.640625 70.464844 22.574219 71.167969 18.054688 71.167969 C 13.539062 71.167969 9.472656 70.464844 6.550781 69.328125 C 3.960938 68.320312 2.359375 67.054688 2.359375 65.769531 L 2.359375 61.328125 C 3.257812 62.007812 4.386719 62.613281 5.710938 63.128906 C 8.894531 64.367188 13.257812 65.132812 18.054688 65.132812 C 22.851562 65.132812 27.214844 64.367188 30.398438 63.128906 C 31.722656 62.613281 32.851562 62.007812 33.75 61.328125 L 33.75 65.769531 C 33.75 67.050781 32.148438 68.320312 29.558594 69.328125 Z M 41.894531 64.835938 C 40.691406 64.835938 39.53125 64.785156 38.414062 64.691406 C 37.613281 64.625 36.835938 64.535156 36.085938 64.425781 L 36.085938 58.414062 C 36.386719 58.453125 36.691406 58.496094 37.007812 58.53125 C 37.574219 58.59375 38.160156 58.648438 38.769531 58.691406 C 39.21875 59.410156 39.785156 60.140625 40.453125 60.875 C 41.625 62.160156 43.128906 63.472656 44.890625 64.730469 C 43.929688 64.800781 42.929688 64.835938 41.894531 64.835938 Z M 68.128906 68.191406 C 67.558594 69.339844 65.558594 69.765625 62.789062 69.515625 C 59.664062 69.242188 55.710938 68.066406 51.664062 66.0625 L 51.65625 66.058594 C 47.617188 64.058594 44.292969 61.625 42.175781 59.308594 C 41.484375 58.550781 40.929688 57.824219 40.535156 57.148438 C 40.496094 57.046875 40.441406 56.949219 40.378906 56.867188 C 39.820312 55.824219 39.664062 54.921875 39.992188 54.253906 L 41.964844 50.273438 C 42.464844 51.28125 43.210938 52.328125 44.164062 53.375 C 46.460938 55.890625 50.035156 58.515625 54.34375 60.652344 C 58.644531 62.78125 62.898438 64.03125 66.296875 64.335938 C 67.710938 64.460938 68.996094 64.417969 70.101562 64.207031 Z M 68.128906 68.191406 " fill-opacity="1" fill-rule="nonzero"/></g></svg>