<svg xmlns="http://www.w3.org/2000/svg" xmlns:xlink="http://www.w3.org/1999/xlink" width="100" zoomAndPan="magnify" viewBox="0 0 75 74.999997" height="100" preserveAspectRatio="xMidYMid meet" version="1.0"><defs><clipPath id="d70a76e776"><path d="M 0 1.160156 L 75 1.160156 L 75 59 L 0 59 Z M 0 1.160156 " clip-rule="nonzero"/></clipPath><clipPath id="69c0b36d74"><path d="M 19 61 L 32 61 L 32 73.910156 L 19 73.910156 Z M 19 61 " clip-rule="nonzero"/></clipPath><clipPath id="be3e5180f4"><path d="M 54 61 L 68 61 L 68 73.910156 L 54 73.910156 Z M 54 61 " clip-rule="nonzero"/></clipPath></defs><g clip-path="url(#d70a76e776)"><path fill="#6b1fad" d="M 74.175781 13.179688 C 73.582031 12.460938 72.695312 12.042969 71.761719 12.042969 L 18.304688 12.042969 L 15.734375 3.398438 C 15.335938 2.070312 14.117188 1.160156 12.730469 1.160156 L 3.167969 1.160156 C 1.4375 1.160156 0.0351562 2.5625 0.0351562 4.292969 C 0.0351562 6.023438 1.4375 7.425781 3.167969 7.425781 L 10.394531 7.425781 L 22.101562 46.757812 C 20.832031 49.082031 19.628906 52.414062 20.996094 55.207031 C 22.203125 57.675781 24.933594 58.929688 29.109375 58.929688 C 29.1875 58.929688 29.261719 58.925781 29.335938 58.917969 C 29.609375 58.894531 56.597656 56.417969 65.90625 56.945312 C 67.261719 57.019531 68.4375 55.980469 68.515625 54.617188 C 68.59375 53.253906 67.546875 52.085938 66.183594 52.007812 C 56.734375 51.476562 31.222656 53.777344 29 53.980469 C 26.710938 53.96875 25.652344 53.464844 25.4375 53.03125 C 25.203125 52.550781 25.371094 51.644531 25.769531 50.617188 C 25.835938 50.613281 25.898438 50.613281 25.96875 50.605469 L 66.859375 45.660156 C 68.210938 45.496094 69.300781 44.476562 69.558594 43.140625 L 74.835938 15.769531 C 75.011719 14.851562 74.769531 13.902344 74.175781 13.179688 Z M 51.480469 28.378906 L 38.617188 28.378906 L 38.617188 18.308594 L 51.480469 18.308594 Z M 24.054688 31.347656 L 35.648438 31.347656 L 35.648438 43.121094 L 27.839844 44.066406 Z M 38.617188 31.347656 L 51.480469 31.347656 L 51.480469 41.207031 L 38.617188 42.761719 Z M 66.023438 28.378906 L 54.445312 28.378906 L 54.445312 18.308594 L 67.964844 18.308594 Z M 35.648438 18.308594 L 35.648438 28.378906 L 23.167969 28.378906 L 20.171875 18.308594 Z M 54.445312 40.847656 L 54.445312 31.347656 L 65.453125 31.347656 L 63.839844 39.710938 Z M 54.445312 40.847656 " fill-opacity="1" fill-rule="nonzero"/></g><g clip-path="url(#69c0b36d74)"><path fill="#6b1fad" d="M 31.527344 67.605469 C 31.527344 68.015625 31.488281 68.421875 31.40625 68.824219 C 31.328125 69.226562 31.207031 69.621094 31.050781 70 C 30.894531 70.378906 30.699219 70.738281 30.472656 71.082031 C 30.246094 71.421875 29.984375 71.738281 29.695312 72.03125 C 29.402344 72.320312 29.085938 72.582031 28.746094 72.808594 C 28.402344 73.035156 28.042969 73.230469 27.664062 73.386719 C 27.285156 73.542969 26.890625 73.664062 26.488281 73.742188 C 26.085938 73.824219 25.679688 73.863281 25.269531 73.863281 C 24.855469 73.863281 24.449219 73.824219 24.046875 73.742188 C 23.644531 73.664062 23.25 73.542969 22.871094 73.386719 C 22.492188 73.230469 22.132812 73.035156 21.789062 72.808594 C 21.449219 72.582031 21.132812 72.320312 20.839844 72.03125 C 20.550781 71.738281 20.292969 71.421875 20.0625 71.082031 C 19.835938 70.738281 19.640625 70.378906 19.484375 70 C 19.328125 69.621094 19.207031 69.226562 19.128906 68.824219 C 19.046875 68.421875 19.007812 68.015625 19.007812 67.605469 C 19.007812 67.191406 19.046875 66.785156 19.128906 66.382812 C 19.207031 65.980469 19.328125 65.589844 19.484375 65.207031 C 19.640625 64.828125 19.835938 64.46875 20.0625 64.125 C 20.292969 63.785156 20.550781 63.46875 20.839844 63.175781 C 21.132812 62.886719 21.449219 62.628906 21.789062 62.398438 C 22.132812 62.171875 22.492188 61.976562 22.871094 61.820312 C 23.25 61.664062 23.644531 61.542969 24.046875 61.464844 C 24.449219 61.382812 24.855469 61.34375 25.269531 61.34375 C 25.679688 61.34375 26.085938 61.382812 26.488281 61.464844 C 26.890625 61.542969 27.285156 61.664062 27.664062 61.820312 C 28.042969 61.976562 28.402344 62.171875 28.746094 62.398438 C 29.085938 62.628906 29.402344 62.886719 29.695312 63.175781 C 29.984375 63.46875 30.246094 63.785156 30.472656 64.125 C 30.699219 64.46875 30.894531 64.828125 31.050781 65.207031 C 31.207031 65.589844 31.328125 65.980469 31.40625 66.382812 C 31.488281 66.785156 31.527344 67.191406 31.527344 67.605469 Z M 31.527344 67.605469 " fill-opacity="1" fill-rule="nonzero"/></g><g clip-path="url(#be3e5180f4)"><path fill="#6b1fad" d="M 67.144531 67.605469 C 67.144531 68.015625 67.101562 68.421875 67.023438 68.824219 C 66.941406 69.226562 66.824219 69.621094 66.667969 70 C 66.507812 70.378906 66.316406 70.738281 66.089844 71.082031 C 65.859375 71.421875 65.601562 71.738281 65.308594 72.03125 C 65.019531 72.320312 64.703125 72.582031 64.359375 72.808594 C 64.019531 73.035156 63.660156 73.230469 63.277344 73.386719 C 62.898438 73.542969 62.507812 73.664062 62.105469 73.742188 C 61.699219 73.824219 61.292969 73.863281 60.882812 73.863281 C 60.472656 73.863281 60.066406 73.824219 59.660156 73.742188 C 59.257812 73.664062 58.867188 73.542969 58.488281 73.386719 C 58.109375 73.230469 57.746094 73.035156 57.40625 72.808594 C 57.0625 72.582031 56.746094 72.320312 56.457031 72.03125 C 56.167969 71.738281 55.90625 71.421875 55.679688 71.082031 C 55.449219 70.738281 55.257812 70.378906 55.101562 70 C 54.941406 69.621094 54.824219 69.226562 54.742188 68.824219 C 54.664062 68.421875 54.625 68.015625 54.625 67.605469 C 54.625 67.191406 54.664062 66.785156 54.742188 66.382812 C 54.824219 65.980469 54.941406 65.589844 55.101562 65.207031 C 55.257812 64.828125 55.449219 64.46875 55.679688 64.125 C 55.90625 63.785156 56.167969 63.46875 56.457031 63.175781 C 56.746094 62.886719 57.0625 62.628906 57.40625 62.398438 C 57.746094 62.171875 58.109375 61.976562 58.488281 61.820312 C 58.867188 61.664062 59.257812 61.542969 59.660156 61.464844 C 60.066406 61.382812 60.472656 61.34375 60.882812 61.34375 C 61.292969 61.34375 61.699219 61.382812 62.105469 61.464844 C 62.507812 61.542969 62.898438 61.664062 63.277344 61.820312 C 63.660156 61.976562 64.019531 62.171875 64.359375 62.398438 C 64.703125 62.628906 65.019531 62.886719 65.308594 63.175781 C 65.601562 63.46875 65.859375 63.785156 66.089844 64.125 C 66.316406 64.46875 66.507812 64.828125 66.667969 65.207031 C 66.824219 65.589844 66.941406 65.980469 67.023438 66.382812 C 67.101562 66.785156 67.144531 67.191406 67.144531 67.605469 Z M 67.144531 67.605469 " fill-opacity="1" fill-rule="nonzero"/></g></svg>