<svg xmlns="http://www.w3.org/2000/svg" width="50" zoomAndPan="magnify" viewBox="0 0 37.5 37.499999" height="50"
     preserveAspectRatio="xMidYMid meet" version="1.0"><defs><clipPath id="5f73c0bc89"><path d="M 0 2.25 L 37.007812 2.25 L 37.007812 34.816406 L 0 34.816406 Z M 0 2.25 " clip-rule="nonzero"/></clipPath><clipPath id="5fb183359a"><path d="M 1 2.25 L 37 2.25 L 37 34 L 1 34 Z M 1 2.25 " clip-rule="nonzero"/></clipPath></defs><g clip-path="url(#5f73c0bc89)"><path fill="#999999" d="M 33.238281 34.804688 L 28.703125 34.804688 C 26.628906 34.804688 24.9375 33.113281 24.9375 31.03125 L 24.9375 26.484375 C 24.9375 25.265625 25.53125 24.144531 26.472656 23.445312 L 24.347656 23.445312 C 24.152344 23.691406 23.941406 23.917969 23.710938 24.128906 C 24.242188 24.789062 24.539062 25.617188 24.539062 26.484375 L 24.539062 31.03125 C 24.539062 33.113281 22.847656 34.804688 20.769531 34.804688 L 16.238281 34.804688 C 14.160156 34.804688 12.46875 33.113281 12.46875 31.03125 L 12.46875 26.484375 C 12.46875 25.617188 12.761719 24.789062 13.296875 24.128906 C 13.066406 23.917969 12.855469 23.691406 12.660156 23.445312 L 10.535156 23.445312 C 11.476562 24.144531 12.070312 25.265625 12.070312 26.484375 L 12.070312 31.03125 C 12.070312 33.113281 10.378906 34.804688 8.300781 34.804688 L 3.769531 34.804688 C 1.691406 34.804688 0 33.113281 0 31.03125 L 0 26.484375 C 0 24.972656 0.910156 23.613281 2.265625 23.023438 L 2.265625 21.941406 C 2.265625 19.589844 3.617188 17.542969 5.582031 16.542969 C 2.738281 16.058594 0.566406 13.570312 0.566406 10.582031 L 0.566406 8.3125 C 0.566406 4.976562 3.273438 2.265625 6.601562 2.265625 L 30.40625 2.265625 C 33.734375 2.265625 36.441406 4.976562 36.441406 8.3125 L 36.441406 10.582031 C 36.441406 13.570312 34.269531 16.058594 31.425781 16.542969 C 33.390625 17.542969 34.738281 19.589844 34.738281 21.941406 L 34.738281 23.023438 C 36.097656 23.617188 37.007812 24.972656 37.007812 26.484375 L 37.007812 31.03125 C 37.007812 33.113281 35.316406 34.804688 33.238281 34.804688 " fill-opacity="1" fill-rule="nonzero"/></g><g clip-path="url(#5fb183359a)"><path fill="#f9e7bd" d="M 34.453125 23.109375 L 34.453125 21.558594 C 34.453125 18.59375 32.046875 16.183594 29.089844 16.183594 L 24.394531 16.183594 C 24.242188 15.964844 24.074219 15.761719 23.890625 15.570312 L 30.789062 15.570312 C 33.746094 15.570312 36.152344 13.160156 36.152344 10.199219 L 36.152344 7.925781 C 36.152344 4.960938 33.746094 2.550781 30.789062 2.550781 L 6.988281 2.550781 C 4.03125 2.550781 1.625 4.960938 1.625 7.925781 L 1.625 10.199219 C 1.625 13.160156 4.03125 15.570312 6.988281 15.570312 L 13.886719 15.570312 C 13.703125 15.761719 13.535156 15.964844 13.382812 16.183594 L 8.6875 16.183594 C 5.730469 16.183594 3.324219 18.59375 3.324219 21.558594 L 3.324219 23.109375 C 2.019531 23.476562 1.058594 24.675781 1.058594 26.101562 L 1.058594 30.644531 C 1.058594 32.355469 2.445312 33.746094 4.152344 33.746094 L 8.6875 33.746094 C 10.394531 33.746094 11.78125 32.355469 11.78125 30.644531 L 11.78125 26.101562 C 11.78125 24.675781 10.820312 23.476562 9.515625 23.109375 L 9.515625 22.386719 L 13.382812 22.386719 C 13.738281 22.894531 14.179688 23.332031 14.683594 23.683594 C 13.976562 24.253906 13.527344 25.125 13.527344 26.101562 L 13.527344 30.644531 C 13.527344 32.355469 14.914062 33.746094 16.621094 33.746094 L 21.15625 33.746094 C 22.863281 33.746094 24.25 32.355469 24.25 30.644531 L 24.25 26.101562 C 24.25 25.125 23.800781 24.253906 23.09375 23.683594 C 23.597656 23.332031 24.039062 22.894531 24.394531 22.386719 L 28.261719 22.386719 L 28.261719 23.109375 C 26.957031 23.476562 25.996094 24.675781 25.996094 26.101562 L 25.996094 30.644531 C 25.996094 32.355469 27.382812 33.746094 29.089844 33.746094 L 33.625 33.746094 C 35.332031 33.746094 36.71875 32.355469 36.71875 30.644531 L 36.71875 26.101562 C 36.71875 24.675781 35.757812 23.476562 34.453125 23.109375 " fill-opacity="1" fill-rule="nonzero"/></g><path fill="#000000" d="M 5.285156 29.507812 L 7.554688 29.507812 L 7.554688 27.234375 L 5.285156 27.234375 L 5.285156 29.507812 " fill-opacity="1" fill-rule="nonzero"/><path fill="#000000" d="M 20.589844 10.199219 L 17.1875 10.199219 L 17.1875 7.925781 L 20.589844 7.925781 Z M 16.054688 10.199219 L 12.652344 10.199219 L 12.652344 7.925781 L 16.054688 7.925781 Z M 11.519531 10.199219 L 8.121094 10.199219 L 8.121094 7.925781 L 11.519531 7.925781 Z M 31.925781 10.199219 L 31.925781 7.925781 C 31.925781 7.296875 31.417969 6.789062 30.789062 6.789062 L 6.988281 6.789062 C 6.359375 6.789062 5.851562 7.296875 5.851562 7.925781 L 5.851562 10.199219 C 5.851562 10.824219 6.359375 11.332031 6.988281 11.332031 L 30.789062 11.332031 C 31.417969 11.332031 31.925781 10.824219 31.925781 10.199219 " fill-opacity="1" fill-rule="nonzero"/><path fill="#000000" d="M 30.222656 29.507812 L 32.492188 29.507812 L 32.492188 27.234375 L 30.222656 27.234375 L 30.222656 29.507812 " fill-opacity="1" fill-rule="nonzero"/><path fill="#000000" d="M 20.023438 18.148438 L 17.753906 18.148438 C 17.128906 18.148438 16.621094 18.65625 16.621094 19.285156 C 16.621094 19.914062 17.128906 20.421875 17.753906 20.421875 L 20.023438 20.421875 C 20.648438 20.421875 21.15625 19.914062 21.15625 19.285156 C 21.15625 18.65625 20.648438 18.148438 20.023438 18.148438 " fill-opacity="1" fill-rule="nonzero"/><path fill="#000000" d="M 34.757812 30.644531 C 34.757812 31.273438 34.25 31.78125 33.625 31.78125 L 29.089844 31.78125 C 28.464844 31.78125 27.957031 31.273438 27.957031 30.644531 L 27.957031 26.101562 C 27.957031 25.472656 28.464844 24.964844 29.089844 24.964844 L 30.222656 24.964844 L 30.222656 21.554688 C 30.222656 20.929688 29.714844 20.421875 29.089844 20.421875 L 23.222656 20.421875 C 22.742188 21.78125 21.460938 22.691406 20.023438 22.691406 L 20.023438 24.964844 L 21.15625 24.964844 C 21.78125 24.964844 22.289062 25.472656 22.289062 26.101562 L 22.289062 30.644531 C 22.289062 31.273438 21.78125 31.78125 21.15625 31.78125 L 16.621094 31.78125 C 15.996094 31.78125 15.488281 31.273438 15.488281 30.644531 L 15.488281 26.101562 C 15.488281 25.472656 15.996094 24.964844 16.621094 24.964844 L 17.753906 24.964844 L 17.753906 22.691406 C 16.316406 22.691406 15.03125 21.78125 14.554688 20.421875 L 8.6875 20.421875 C 8.0625 20.421875 7.554688 20.929688 7.554688 21.554688 L 7.554688 24.964844 L 8.6875 24.964844 C 9.3125 24.964844 9.820312 25.472656 9.820312 26.101562 L 9.820312 30.644531 C 9.820312 31.273438 9.3125 31.78125 8.6875 31.78125 L 4.152344 31.78125 C 3.527344 31.78125 3.019531 31.273438 3.019531 30.644531 L 3.019531 26.101562 C 3.019531 25.472656 3.527344 24.964844 4.152344 24.964844 L 5.285156 24.964844 L 5.285156 21.554688 C 5.285156 19.675781 6.808594 18.148438 8.6875 18.148438 L 14.554688 18.148438 C 15.03125 16.789062 16.316406 15.878906 17.753906 15.878906 L 17.753906 13.605469 L 6.988281 13.605469 C 5.109375 13.605469 3.585938 12.078125 3.585938 10.199219 L 3.585938 7.925781 C 3.585938 6.042969 5.109375 4.519531 6.988281 4.519531 L 30.789062 4.519531 C 32.667969 4.519531 34.191406 6.042969 34.191406 7.925781 L 34.191406 10.199219 C 34.191406 12.078125 32.667969 13.605469 30.789062 13.605469 L 20.023438 13.605469 L 20.023438 15.878906 C 21.460938 15.878906 22.742188 16.789062 23.222656 18.148438 L 29.089844 18.148438 C 30.96875 18.148438 32.492188 19.675781 32.492188 21.554688 L 32.492188 24.964844 L 33.625 24.964844 C 34.25 24.964844 34.757812 25.472656 34.757812 26.101562 Z M 33.625 24.011719 L 33.441406 24.011719 L 33.441406 21.558594 C 33.441406 19.152344 31.488281 17.195312 29.089844 17.195312 L 23.839844 17.195312 C 23.238281 16.09375 22.1875 15.304688 20.972656 15.03125 L 20.972656 14.558594 L 30.789062 14.558594 C 33.191406 14.558594 35.144531 12.601562 35.144531 10.199219 L 35.144531 7.925781 C 35.144531 5.519531 33.191406 3.5625 30.789062 3.5625 L 6.988281 3.5625 C 4.585938 3.5625 2.632812 5.519531 2.632812 7.925781 L 2.632812 10.199219 C 2.632812 12.601562 4.585938 14.558594 6.988281 14.558594 L 16.804688 14.558594 L 16.804688 15.03125 C 15.589844 15.304688 14.539062 16.09375 13.9375 17.195312 L 8.6875 17.195312 C 6.285156 17.195312 4.335938 19.152344 4.335938 21.558594 L 4.335938 24.011719 L 4.152344 24.011719 C 3.003906 24.011719 2.066406 24.949219 2.066406 26.101562 L 2.066406 30.644531 C 2.066406 31.796875 3.003906 32.734375 4.152344 32.734375 L 8.6875 32.734375 C 9.835938 32.734375 10.773438 31.796875 10.773438 30.644531 L 10.773438 26.101562 C 10.773438 24.949219 9.835938 24.011719 8.6875 24.011719 L 8.503906 24.011719 L 8.503906 21.558594 C 8.503906 21.457031 8.585938 21.375 8.6875 21.375 L 13.9375 21.375 C 14.539062 22.476562 15.589844 23.265625 16.804688 23.539062 L 16.804688 24.011719 L 16.621094 24.011719 C 15.472656 24.011719 14.535156 24.949219 14.535156 26.101562 L 14.535156 30.644531 C 14.535156 31.796875 15.472656 32.734375 16.621094 32.734375 L 21.15625 32.734375 C 22.304688 32.734375 23.242188 31.796875 23.242188 30.644531 L 23.242188 26.101562 C 23.242188 24.949219 22.304688 24.011719 21.15625 24.011719 L 20.972656 24.011719 L 20.972656 23.539062 C 22.1875 23.265625 23.238281 22.476562 23.839844 21.375 L 29.089844 21.375 C 29.191406 21.375 29.269531 21.457031 29.269531 21.558594 L 29.269531 24.011719 L 29.089844 24.011719 C 27.941406 24.011719 27.003906 24.949219 27.003906 26.101562 L 27.003906 30.644531 C 27.003906 31.796875 27.941406 32.734375 29.089844 32.734375 L 33.625 32.734375 C 34.773438 32.734375 35.710938 31.796875 35.710938 30.644531 L 35.710938 26.101562 C 35.710938 24.949219 34.773438 24.011719 33.625 24.011719 " fill-opacity="1" fill-rule="nonzero"/><path fill="#000000" d="M 17.753906 29.507812 L 20.023438 29.507812 L 20.023438 27.234375 L 17.753906 27.234375 L 17.753906 29.507812 " fill-opacity="1" fill-rule="nonzero"/></svg>