<svg width="800px" height="800px" viewBox="-0.24 -0.24 24.48 24.48" fill="none" xmlns="http://www.w3.org/2000/svg">

<g id="SVGRepo_bgCarrier" stroke-width="0"/>

<g id="SVGRepo_tracerCarrier" stroke-linecap="round" stroke-linejoin="round" stroke="#CCCCCC" stroke-width="1.152"> <path d="M1 12C1 12 5 4 12 4C19 4 23 12 23 12" stroke="#ffffff" stroke-width="2.4" stroke-linecap="round" stroke-linejoin="round"/> <path d="M1 12C1 12 5 20 12 20C19 20 23 12 23 12" stroke="#ffffff" stroke-width="2.4" stroke-linecap="round" stroke-linejoin="round"/> <circle cx="12" cy="12" r="3" stroke="#ffffff" stroke-width="2.4" stroke-linecap="round" stroke-linejoin="round"/> </g>

<g id="SVGRepo_iconCarrier"> <path d="M1 12C1 12 5 4 12 4C19 4 23 12 23 12" stroke="#ffffff" stroke-width="2.4" stroke-linecap="round" stroke-linejoin="round"/> <path d="M1 12C1 12 5 20 12 20C19 20 23 12 23 12" stroke="#ffffff" stroke-width="2.4" stroke-linecap="round" stroke-linejoin="round"/> <circle cx="12" cy="12" r="3" stroke="#ffffff" stroke-width="2.4" stroke-linecap="round" stroke-linejoin="round"/> </g>

</svg>