<svg xmlns="http://www.w3.org/2000/svg" width="50" zoomAndPan="magnify" viewBox="0 0 37.5 37.499999" height="50"
     preserveAspectRatio="xMidYMid meet" version="1.0"><defs><clipPath id="8506a9b6f5"><path d="M 0 3.699219 L 37 3.699219 L 37 35.527344 L 0 35.527344 Z M 0 3.699219 " clip-rule="nonzero"/></clipPath><clipPath id="212bd6c714"><path d="M 4 13 L 37.007812 13 L 37.007812 33 L 4 33 Z M 4 13 " clip-rule="nonzero"/></clipPath></defs><g clip-path="url(#8506a9b6f5)"><path fill="#60b7fe" d="M 0.730469 18.917969 L 26.714844 3.898438 C 27.410156 3.496094 28.308594 3.738281 28.710938 4.433594 L 36.710938 18.304688 C 37.109375 19 36.871094 19.898438 36.175781 20.300781 L 10.1875 35.320312 C 9.492188 35.722656 8.597656 35.480469 8.195312 34.785156 L 0.195312 20.914062 C -0.207031 20.21875 0.0351562 19.320312 0.730469 18.917969 Z M 0.730469 18.917969 " fill-opacity="1" fill-rule="evenodd"/></g><path fill="#4187b5" d="M 3.097656 17.550781 L 12.363281 12.195312 L 33.183594 12.195312 L 36.023438 17.113281 L 36.023438 20.386719 L 17.433594 31.132812 L 6.089844 31.132812 L 3.097656 25.945312 Z M 3.097656 17.550781 " fill-opacity="1" fill-rule="evenodd"/><g clip-path="url(#212bd6c714)"><path fill="#19cfba" d="M 5.539062 13.988281 L 35.546875 13.988281 C 36.347656 13.988281 37.003906 14.644531 37.003906 15.449219 L 37.003906 31.464844 C 37.003906 32.269531 36.347656 32.925781 35.546875 32.925781 L 5.539062 32.925781 C 4.738281 32.925781 4.078125 32.269531 4.078125 31.464844 L 4.078125 15.449219 C 4.078125 14.644531 4.738281 13.988281 5.539062 13.988281 Z M 5.539062 13.988281 " fill-opacity="1" fill-rule="evenodd"/></g><path fill="#ffbf31" d="M 7.828125 25.929688 C 7.828125 23.644531 9.699219 21.773438 11.980469 21.773438 C 14.265625 21.773438 16.132812 23.644531 16.132812 25.929688 L 16.132812 28.660156 C 16.132812 29.339844 15.582031 29.894531 14.902344 29.894531 L 9.058594 29.894531 C 8.382812 29.894531 7.828125 29.339844 7.828125 28.660156 Z M 7.828125 25.929688 " fill-opacity="1" fill-rule="evenodd"/><path fill="#ffbf31" d="M 18.953125 17.617188 L 21.046875 17.617188 L 21.046875 19.710938 L 18.953125 19.710938 Z M 18.953125 17.617188 " fill-opacity="1" fill-rule="evenodd"/><path fill="#ffbf31" d="M 18.953125 22.410156 L 21.046875 22.410156 L 21.046875 24.503906 L 18.953125 24.503906 Z M 18.953125 22.410156 " fill-opacity="1" fill-rule="evenodd"/><path fill="#ffbf31" d="M 18.953125 27.203125 L 21.046875 27.203125 L 21.046875 29.296875 L 18.953125 29.296875 Z M 18.953125 27.203125 " fill-opacity="1" fill-rule="evenodd"/><path fill="#4187b5" d="M 33.257812 27.671875 C 33.574219 27.671875 33.835938 27.929688 33.835938 28.25 C 33.835938 28.570312 33.574219 28.828125 33.257812 28.828125 L 23.878906 28.828125 C 23.558594 28.828125 23.300781 28.570312 23.300781 28.25 C 23.300781 27.929688 23.558594 27.671875 23.878906 27.671875 Z M 33.257812 18.085938 C 33.574219 18.085938 33.835938 18.34375 33.835938 18.664062 C 33.835938 18.984375 33.574219 19.242188 33.257812 19.242188 L 23.878906 19.242188 C 23.558594 19.242188 23.300781 18.984375 23.300781 18.664062 C 23.300781 18.34375 23.558594 18.085938 23.878906 18.085938 Z M 33.257812 22.878906 C 33.574219 22.878906 33.835938 23.136719 33.835938 23.457031 C 33.835938 23.777344 33.574219 24.035156 33.257812 24.035156 L 23.878906 24.035156 C 23.558594 24.035156 23.300781 23.777344 23.300781 23.457031 C 23.300781 23.136719 23.558594 22.878906 23.878906 22.878906 Z M 33.257812 22.878906 " fill-opacity="1" fill-rule="evenodd"/><path fill="#f0b16e" d="M 11.980469 17.171875 C 13.292969 17.171875 14.355469 18.234375 14.355469 19.546875 C 14.355469 20.859375 13.292969 21.921875 11.980469 21.921875 C 10.671875 21.921875 9.609375 20.859375 9.609375 19.546875 C 9.609375 18.234375 10.671875 17.171875 11.980469 17.171875 Z M 11.980469 17.171875 " fill-opacity="1" fill-rule="evenodd"/></svg>