<svg xmlns="http://www.w3.org/2000/svg" width="50" zoomAndPan="magnify" viewBox="0 0 37.5 37.499999" height="50"
     preserveAspectRatio="xMidYMid meet" version="1.0"><defs><clipPath id="7a940eaa93"><path d="M 0 0.554688 L 37 0.554688 L 37 36.820312 L 0 36.820312 Z M 0 0.554688 " clip-rule="nonzero"/></clipPath></defs><g clip-path="url(#7a940eaa93)"><path fill="#000000" d="M 13.074219 6.96875 C 13.074219 6.890625 13.09375 6.808594 13.136719 6.734375 C 13.183594 6.652344 13.253906 6.589844 13.332031 6.550781 L 18.355469 3.621094 L 18.378906 3.605469 L 23.453125 0.648438 C 23.589844 0.566406 23.769531 0.558594 23.917969 0.644531 L 27.089844 2.496094 L 27.105469 2.503906 L 28.992188 3.605469 L 30.265625 4.347656 C 30.28125 4.355469 30.300781 4.367188 30.316406 4.378906 L 34.042969 6.550781 C 34.121094 6.589844 34.191406 6.652344 34.238281 6.734375 C 34.285156 6.816406 34.304688 6.90625 34.296875 6.996094 L 34.234375 18.828125 C 34.242188 18.996094 34.160156 19.164062 34.003906 19.253906 L 27.726562 22.917969 L 27.722656 22.914062 L 27.722656 22.917969 L 23.953125 25.113281 C 23.878906 25.167969 23.789062 25.203125 23.6875 25.203125 C 23.59375 25.203125 23.503906 25.171875 23.429688 25.121094 L 18.378906 22.175781 L 18.382812 22.175781 L 13.34375 19.238281 C 13.183594 19.164062 13.074219 19.003906 13.074219 18.8125 Z M 19.429688 35.207031 C 20.601562 35.429688 21.699219 35.421875 22.722656 35.1875 C 23.757812 34.949219 24.710938 34.480469 25.582031 33.78125 L 25.597656 33.765625 L 35.914062 25.851562 C 36.75 25.355469 36.996094 24.511719 36.847656 23.695312 C 36.792969 23.394531 36.679688 23.097656 36.527344 22.828125 C 36.371094 22.558594 36.171875 22.3125 35.933594 22.113281 C 35.296875 21.570312 34.425781 21.363281 33.53125 21.882812 L 33.527344 21.882812 L 22.722656 28.195312 L 22.066406 28.015625 C 22.394531 27.738281 22.648438 27.363281 22.765625 26.914062 C 22.902344 26.398438 22.839844 25.875 22.628906 25.425781 C 22.609375 25.382812 22.585938 25.339844 22.566406 25.296875 C 22.558594 25.289062 22.554688 25.277344 22.550781 25.269531 C 22.273438 24.785156 21.816406 24.410156 21.246094 24.253906 L 14.308594 22.363281 L 14.289062 22.359375 C 13.292969 22.078125 12.339844 21.984375 11.421875 22.070312 C 10.390625 22.171875 9.410156 22.503906 8.488281 23.074219 L 8.472656 23.082031 L 5.25 24.964844 C 5.015625 24.703125 4.71875 24.527344 4.394531 24.4375 C 3.96875 24.324219 3.503906 24.367188 3.089844 24.59375 C 3.0625 24.605469 3.039062 24.621094 3.015625 24.636719 L 0.945312 25.84375 C 0.519531 26.09375 0.234375 26.492188 0.117188 26.933594 C 0.00390625 27.367188 0.046875 27.847656 0.277344 28.269531 C 0.28125 28.28125 0.289062 28.289062 0.292969 28.300781 L 4.617188 35.863281 C 4.863281 36.292969 5.257812 36.582031 5.699219 36.703125 C 6.128906 36.816406 6.601562 36.773438 7.019531 36.539062 C 7.03125 36.535156 7.039062 36.527344 7.050781 36.523438 L 9.148438 35.296875 C 9.574219 35.050781 9.859375 34.652344 9.976562 34.207031 C 10.0625 33.878906 10.058594 33.53125 9.953125 33.195312 L 11.304688 32.410156 C 13.335938 33.160156 14.8125 33.695312 16.023438 34.113281 C 17.296875 34.550781 18.296875 34.871094 19.363281 35.191406 C 19.386719 35.199219 19.40625 35.203125 19.429688 35.207031 Z M 19.429688 35.207031 " fill-opacity="1" fill-rule="evenodd"/></g><path fill="#c76d33" d="M 18.839844 21.375 Z M 13.996094 18.546875 L 18.839844 21.371094 L 23.226562 23.929688 L 23.226562 13.15625 L 20.367188 11.488281 L 20.367188 15.140625 C 20.367188 15.558594 19.835938 15.792969 19.535156 15.414062 L 18.117188 13.765625 L 16.753906 13.886719 C 16.476562 13.90625 16.253906 13.695312 16.253906 13.421875 L 16.253906 9.089844 L 13.992188 7.773438 L 13.992188 18.546875 Z M 13.996094 18.546875 " fill-opacity="1" fill-rule="evenodd"/><path fill="#c76d33" d="M 27.265625 22.113281 Z M 24.148438 13.160156 L 24.148438 23.933594 L 27.265625 22.113281 L 33.316406 18.582031 L 33.375 7.773438 Z M 24.148438 13.160156 " fill-opacity="1" fill-rule="evenodd"/><path fill="#c76d33" d="M 23.6875 12.355469 L 32.921875 6.96875 L 30.0625 5.300781 L 20.824219 10.6875 Z M 23.6875 12.355469 " fill-opacity="1" fill-rule="evenodd"/><path fill="#ffe177" d="M 28.535156 4.410156 Z M 19.707031 10.269531 L 29.140625 4.765625 L 28.53125 4.410156 L 26.867188 3.4375 L 17.171875 9.089844 L 17.171875 12.914062 L 18.269531 12.820312 C 18.4375 12.804688 18.589844 12.878906 18.679688 13.003906 L 19.445312 13.898438 L 19.445312 10.6875 C 19.445312 10.503906 19.554688 10.34375 19.707031 10.269531 Z M 19.707031 10.269531 " fill-opacity="1" fill-rule="evenodd"/><path fill="#c76d33" d="M 16.714844 8.289062 L 25.949219 2.902344 L 23.6875 1.582031 L 18.839844 4.410156 L 14.453125 6.96875 Z M 16.714844 8.289062 " fill-opacity="1" fill-rule="evenodd"/><path fill="#f5dccd" d="M 9.53125 32.375 L 11.007812 31.511719 C 11.125 31.433594 11.273438 31.410156 11.417969 31.464844 C 13.523438 32.242188 15.046875 32.792969 16.320312 33.230469 C 17.566406 33.664062 18.554688 33.980469 19.605469 34.296875 C 20.652344 34.492188 21.625 34.488281 22.519531 34.28125 C 23.339844 34.09375 24.097656 33.738281 24.804688 33.210938 L 24.953125 33.097656 L 25.007812 33.050781 C 25.023438 33.042969 25.035156 33.035156 25.046875 33.023438 L 35.390625 25.09375 C 35.402344 25.082031 35.421875 25.070312 35.4375 25.0625 L 35.4375 25.058594 C 35.894531 24.792969 36.027344 24.320312 35.945312 23.863281 C 35.90625 23.667969 35.835938 23.472656 35.730469 23.292969 C 35.628906 23.113281 35.496094 22.949219 35.34375 22.820312 C 34.984375 22.511719 34.492188 22.394531 33.988281 22.6875 L 23.015625 29.09375 C 22.90625 29.160156 22.78125 29.171875 22.667969 29.140625 L 20.132812 28.449219 L 16.492188 27.464844 C 16.246094 27.398438 16.101562 27.144531 16.167969 26.898438 C 16.234375 26.648438 16.484375 26.503906 16.730469 26.566406 L 20.367188 27.550781 L 20.371094 27.554688 C 20.699219 27.640625 21.03125 27.585938 21.304688 27.429688 C 21.574219 27.269531 21.789062 27.007812 21.875 26.679688 L 21.878906 26.675781 C 21.964844 26.351562 21.914062 26.023438 21.765625 25.753906 L 21.753906 25.734375 C 21.597656 25.457031 21.335938 25.238281 21.007812 25.152344 L 14.472656 23.371094 C 14.433594 23.371094 14.398438 23.363281 14.359375 23.351562 C 14.277344 23.324219 14.195312 23.296875 14.113281 23.273438 L 14.070312 23.261719 L 14.039062 23.253906 C 13.15625 23.003906 12.3125 22.917969 11.511719 22.996094 C 10.707031 23.074219 9.9375 23.316406 9.203125 23.726562 L 9.003906 23.84375 L 8.96875 23.867188 C 8.957031 23.871094 8.945312 23.878906 8.933594 23.886719 L 5.742188 25.746094 Z M 20.132812 28.449219 Z M 20.132812 28.449219 " fill-opacity="1" fill-rule="evenodd"/><path fill="#8ac9fe" d="M 1.40625 26.644531 Z M 5.410156 35.398438 Z M 9.003906 33.304688 L 4.683594 25.738281 C 4.441406 25.324219 3.898438 25.183594 3.503906 25.421875 L 1.40625 26.644531 C 0.980469 26.902344 0.855469 27.453125 1.089844 27.835938 L 5.410156 35.398438 C 5.664062 35.824219 6.195312 35.957031 6.589844 35.71875 L 8.6875 34.496094 C 9.097656 34.253906 9.238281 33.714844 9.003906 33.304688 Z M 9.003906 33.304688 " fill-opacity="1" fill-rule="evenodd"/></svg>