<svg xmlns="http://www.w3.org/2000/svg" width="100" zoomAndPan="magnify" viewBox="0 0 75 74.999997" height="100"
     preserveAspectRatio="xMidYMid meet" version="1.0"><defs><clipPath id="8674d446a4"><path d="M 0.4375 0 L 74.6875 0 L 74.6875 74.25 L 0.4375 74.25 Z M 0.4375 0 " clip-rule="nonzero"/></clipPath></defs><g clip-path="url(#8674d446a4)"><path fill="#ffffff" d="M 57.957031 29.84375 L 16.011719 29.84375 C 15.429688 29.84375 14.957031 30.316406 14.957031 30.898438 L 14.957031 36.316406 C 14.957031 36.898438 15.429688 37.371094 16.011719 37.371094 L 17.722656 37.371094 L 22.195312 73.535156 C 22.261719 74.0625 22.710938 74.460938 23.242188 74.460938 L 50.726562 74.460938 C 51.257812 74.460938 51.707031 74.0625 51.773438 73.535156 L 56.246094 37.371094 L 57.957031 37.371094 C 58.539062 37.371094 59.011719 36.898438 59.011719 36.316406 L 59.011719 30.898438 C 59.011719 30.316406 58.539062 29.84375 57.957031 29.84375 Z M 49.792969 72.351562 L 24.175781 72.351562 L 19.847656 37.371094 L 54.121094 37.371094 Z M 56.902344 35.261719 L 17.066406 35.261719 L 17.066406 31.953125 L 56.902344 31.953125 Z M 28.78125 63.050781 L 28.007812 46.769531 C 27.980469 46.191406 28.429688 45.695312 29.011719 45.667969 C 29.597656 45.640625 30.089844 46.089844 30.117188 46.671875 L 30.886719 62.953125 C 30.914062 63.535156 30.464844 64.027344 29.882812 64.054688 C 29.867188 64.054688 29.851562 64.058594 29.832031 64.058594 C 29.273438 64.058594 28.808594 63.617188 28.78125 63.050781 Z M 43.082031 62.953125 L 43.851562 46.671875 C 43.878906 46.089844 44.375 45.640625 44.957031 45.667969 C 45.535156 45.695312 45.984375 46.191406 45.957031 46.769531 L 45.1875 63.050781 C 45.160156 63.617188 44.695312 64.058594 44.132812 64.058594 C 44.117188 64.058594 44.101562 64.054688 44.082031 64.054688 C 43.503906 64.027344 43.054688 63.535156 43.082031 62.953125 Z M 35.929688 65.585938 L 35.929688 44.136719 C 35.929688 43.554688 36.402344 43.082031 36.984375 43.082031 C 37.566406 43.082031 38.039062 43.554688 38.039062 44.136719 L 38.039062 65.585938 C 38.039062 66.167969 37.566406 66.640625 36.984375 66.640625 C 36.402344 66.640625 35.929688 66.167969 35.929688 65.585938 Z M 36.515625 3.113281 L 33.757812 0.355469 C 33.515625 0.113281 33.175781 0.00390625 32.839844 0.0585938 L 26.234375 1.140625 C 26.019531 1.175781 25.816406 1.28125 25.660156 1.4375 L 18.59375 8.503906 L 17.808594 7.722656 C 17.03125 6.945312 15.996094 6.519531 14.894531 6.519531 C 13.792969 6.519531 12.761719 6.945312 11.984375 7.722656 L 8.160156 11.546875 C 7.382812 12.320312 6.957031 13.355469 6.957031 14.457031 C 6.957031 15.558594 7.382812 16.59375 8.160156 17.371094 L 8.941406 18.152344 L 1.875 25.222656 C 1.71875 25.378906 1.617188 25.578125 1.578125 25.796875 L 0.496094 32.402344 C 0.441406 32.738281 0.550781 33.078125 0.792969 33.316406 L 3.554688 36.078125 C 3.757812 36.285156 4.027344 36.386719 4.296875 36.386719 C 4.570312 36.386719 4.839844 36.285156 5.042969 36.078125 L 36.515625 4.605469 C 36.929688 4.195312 36.929688 3.527344 36.515625 3.113281 Z M 9.652344 15.878906 C 9.273438 15.5 9.066406 14.996094 9.066406 14.457031 C 9.066406 13.917969 9.273438 13.414062 9.652344 13.035156 L 13.476562 9.214844 C 13.851562 8.835938 14.359375 8.628906 14.894531 8.628906 C 15.433594 8.628906 15.941406 8.835938 16.316406 9.214844 L 17.101562 9.996094 L 10.433594 16.664062 Z M 26.910156 3.167969 L 29.949219 2.671875 L 3.109375 29.511719 L 3.605469 26.472656 Z M 4.296875 33.84375 L 3.027344 32.574219 L 33.011719 2.589844 L 34.28125 3.859375 Z M 74.363281 5.632812 C 74.320312 5.605469 74.242188 5.566406 74.046875 5.527344 L 74.050781 5.515625 C 64.308594 3.554688 55.871094 3.9375 48.96875 6.652344 C 43.796875 8.691406 40.515625 11.632812 38.570312 13.96875 L 35.160156 12 C 34.804688 11.792969 34.355469 11.816406 34.019531 12.058594 C 33.683594 12.296875 33.519531 12.714844 33.601562 13.121094 L 36.234375 26.375 C 36.292969 26.671875 36.480469 26.929688 36.742188 27.082031 C 36.902344 27.175781 37.085938 27.222656 37.269531 27.222656 C 37.382812 27.222656 37.496094 27.203125 37.609375 27.167969 L 50.402344 22.820312 C 50.796875 22.6875 51.074219 22.339844 51.113281 21.925781 C 51.15625 21.515625 50.949219 21.117188 50.59375 20.910156 L 47.652344 19.210938 C 59.835938 6.773438 73.15625 7.558594 73.722656 7.597656 C 73.742188 7.601562 73.765625 7.601562 73.789062 7.601562 C 74.277344 7.632812 74.722656 7.3125 74.855469 6.84375 C 74.992188 6.375 74.789062 5.871094 74.363281 5.632812 Z M 64.5 6.699219 C 59.5 8.074219 52.089844 11.277344 45.1875 18.738281 C 44.972656 18.972656 44.871094 19.296875 44.921875 19.613281 C 44.96875 19.929688 45.160156 20.207031 45.4375 20.367188 L 47.523438 21.574219 L 38.070312 24.78125 L 36.121094 14.992188 L 38.300781 16.25 C 38.761719 16.515625 39.34375 16.398438 39.667969 15.976562 C 41.351562 13.761719 44.46875 10.691406 49.742188 8.617188 C 54.242188 6.84375 59.46875 6.128906 65.347656 6.476562 C 65.070312 6.546875 64.789062 6.621094 64.5 6.699219 Z M 64.5 6.699219 " fill-opacity="1" fill-rule="nonzero"/></g></svg>