<svg xmlns="http://www.w3.org/2000/svg" width="50" zoomAndPan="magnify" viewBox="0 0 37.5 37.499999" height="50"
     preserveAspectRatio="xMidYMid meet" version="1.0"><defs><clipPath id="a0abf83a3d"><path d="M 1 3 L 36 3 L 36 34.308594 L 1 34.308594 Z M 1 3 " clip-rule="nonzero"/></clipPath></defs><g clip-path="url(#a0abf83a3d)"><path fill="#ffd31a" d="M 22.453125 5.496094 L 35.25 27.511719 C 37.003906 30.535156 34.808594 34.308594 31.300781 34.308594 L 5.707031 34.308594 C 2.195312 34.308594 0.00390625 30.535156 1.757812 27.511719 L 14.554688 5.496094 C 16.308594 2.484375 20.695312 2.484375 22.453125 5.496094 Z M 22.453125 5.496094 " fill-opacity="1" fill-rule="nonzero"/></g><path fill="#000000" d="M 16.582031 30.300781 C 16.253906 29.949219 16.085938 29.46875 16.085938 28.863281 C 16.085938 28.226562 16.28125 27.707031 16.664062 27.308594 C 17.046875 26.90625 17.570312 26.703125 18.234375 26.703125 C 18.859375 26.703125 19.34375 26.878906 19.679688 27.234375 C 20.015625 27.585938 20.183594 28.066406 20.183594 28.671875 C 20.183594 29.308594 19.988281 29.828125 19.59375 30.226562 C 19.203125 30.625 18.691406 30.832031 18.046875 30.832031 C 17.390625 30.832031 16.90625 30.65625 16.582031 30.300781 Z M 17.195312 24.089844 L 16.703125 13 C 16.691406 12.894531 16.730469 12.785156 16.785156 12.703125 L 16.898438 12.542969 C 16.972656 12.441406 17.085938 12.367188 17.214844 12.347656 L 20.238281 11.867188 C 20.398438 11.839844 20.558594 11.894531 20.667969 12.015625 L 20.761719 12.117188 C 20.863281 12.21875 20.910156 12.367188 20.894531 12.507812 L 19.34375 24.023438 C 19.316406 24.226562 19.15625 24.394531 18.953125 24.433594 L 17.867188 24.625 C 17.730469 24.65625 17.578125 24.609375 17.46875 24.515625 L 17.363281 24.433594 C 17.261719 24.339844 17.207031 24.21875 17.195312 24.089844 Z M 17.195312 24.089844 " fill-opacity="1" fill-rule="nonzero"/><path stroke-linecap="butt" transform="matrix(0.740132, 0, 0, 0.740132, 8.659539, 32.565787)" fill="none" stroke-linejoin="miter" d="M 0.000833457 0.502225 L 15.997779 0.502225 " stroke="#ffd31a" stroke-width="1" stroke-opacity="1" stroke-miterlimit="4"/></svg>